<svg width="42" height="42" viewBox="0 0 42 42" fill="none" xmlns="http://www.w3.org/2000/svg">
<path d="M20.9996 1.3125C12.4027 1.3125 5.11836 6.825 2.42773 14.4375H39.5715C36.8809 6.825 29.5965 1.3125 20.9996 1.3125Z" fill="#ED4C5C"/>
<path d="M20.9996 40.6875C29.5965 40.6875 36.8809 35.2406 39.5715 27.5625H2.42773C5.11836 35.2406 12.4027 40.6875 20.9996 40.6875Z" fill="#F2B200"/>
<path d="M2.42813 14.4375C1.70625 16.4719 1.3125 18.7031 1.3125 21C1.3125 23.2969 1.70625 25.5281 2.42813 27.5625H39.5719C40.2938 25.5281 40.6875 23.2969 40.6875 21C40.6875 18.7031 40.2938 16.4719 39.5719 14.4375H2.42813Z" fill="#2A5F9E"/>
</svg>
