<svg width="42" height="42" viewBox="0 0 42 42" fill="none" xmlns="http://www.w3.org/2000/svg">
<path d="M24.9373 1.70605H17.0623C9.38418 3.28105 3.28105 9.31855 1.70605 17.0623V24.9373C3.28105 32.6811 9.38418 38.7186 17.0623 40.2936H24.9373C32.6811 38.7186 38.7186 32.6154 40.2936 24.9373V17.0623C38.7186 9.31855 32.6154 3.28105 24.9373 1.70605Z" fill="#F9F9F9"/>
<path d="M24.9375 17.0625V1.70625C23.6906 1.44375 22.3781 1.3125 21 1.3125C19.6219 1.3125 18.3094 1.44375 17.0625 1.70625V17.0625H1.70625C1.44375 18.3094 1.3125 19.6219 1.3125 21C1.3125 22.3781 1.44375 23.6906 1.70625 24.9375H17.0625V40.2938C18.3094 40.5563 19.6219 40.6875 21 40.6875C22.3781 40.6875 23.6906 40.5563 24.9375 40.2938V24.9375H40.2938C40.5563 23.6906 40.6875 22.3781 40.6875 21C40.6875 19.6219 40.5563 18.3094 40.2938 17.0625H24.9375Z" fill="#ED4C5C"/>
<path d="M11.8125 13.125H9.1875L9.84375 9.1875L9.1875 5.25H11.8125L11.1562 9.1875L11.8125 13.125Z" fill="#ED4C5C"/>
<path d="M6.5625 10.5V7.875L10.5 8.53125L14.4375 7.875V10.5L10.5 9.84375L6.5625 10.5ZM32.8125 13.125H30.1875L30.8438 9.1875L30.1875 5.25H32.8125L32.1562 9.1875L32.8125 13.125Z" fill="#ED4C5C"/>
<path d="M27.5625 10.5V7.875L31.5 8.53125L35.4375 7.875V10.5L31.5 9.84375L27.5625 10.5ZM11.8125 36.75H9.1875C9.1875 36.75 9.84375 33.7969 9.84375 32.8125C9.84375 31.8281 9.1875 28.875 9.1875 28.875H11.8125C11.8125 28.875 11.1562 31.8281 11.1562 32.8125C11.1562 33.7969 11.8125 36.75 11.8125 36.75Z" fill="#ED4C5C"/>
<path d="M6.5625 34.125V31.5L10.5 32.1562L14.4375 31.5V34.125L10.5 33.4688L6.5625 34.125ZM32.8125 36.75H30.1875L30.8438 32.8125L30.1875 28.875H32.8125L32.1562 32.8125L32.8125 36.75Z" fill="#ED4C5C"/>
<path d="M27.5625 34.125V31.5L31.5 32.1562L35.4375 31.5V34.125L31.5 33.4688L27.5625 34.125Z" fill="#ED4C5C"/>
</svg>
