<svg width="42" height="42" viewBox="0 0 42 42" fill="none" xmlns="http://www.w3.org/2000/svg">
<path d="M36.75 9.1875H21V13.125H39.0469C38.4562 11.7469 37.6688 10.3687 36.75 9.1875Z" fill="#428BC1"/>
<path d="M21 9.1875H36.75C35.6344 7.67813 34.3219 6.36563 32.8125 5.25H21V9.1875ZM39.0469 13.125H21V17.0625H40.2938C40.0313 15.6844 39.5719 14.3719 39.0469 13.125Z" fill="#F9F9F9"/>
<path d="M2.95293 28.875H39.0467C39.5717 27.6281 40.0311 26.3156 40.2936 24.9375H1.70605C1.96855 26.3156 2.42793 27.6281 2.95293 28.875Z" fill="#428BC1"/>
<path d="M5.25 32.8125H36.75C37.6688 31.6313 38.4562 30.2531 39.0469 28.875H2.95312C3.54375 30.2531 4.33125 31.6313 5.25 32.8125Z" fill="#F9F9F9"/>
<path d="M5.25 32.8125C6.36563 34.3219 7.67813 35.6344 9.1875 36.75H32.8125C34.3219 35.6344 35.6344 34.3219 36.75 32.8125H5.25Z" fill="#428BC1"/>
<path d="M9.1875 36.75C12.4688 39.2438 16.5375 40.6875 21 40.6875C25.4625 40.6875 29.5312 39.2438 32.8125 36.75H9.1875ZM13.125 21V13.125H21V9.1875H13.125V2.95312C11.7469 3.54375 10.3687 4.33125 9.1875 5.25V9.1875H5.25C4.33125 10.3688 3.54375 11.7469 2.95312 13.125H9.1875V21H1.3125C1.3125 22.3781 1.44375 23.6906 1.70625 24.9375H40.2938C40.5563 23.6906 40.6875 22.3781 40.6875 21H13.125Z" fill="#F9F9F9"/>
<path d="M40.2938 17.0625H21V13.125H13.125V21H40.6875C40.6875 19.6219 40.5563 18.3094 40.2938 17.0625ZM21 1.3125C18.1781 1.3125 15.5531 1.90312 13.125 2.95312V9.1875H21V5.25H32.8125C29.5312 2.75625 25.4625 1.3125 21 1.3125ZM9.1875 9.1875V5.25C7.67812 6.36562 6.36562 7.67812 5.25 9.1875H9.1875ZM2.95312 13.125C1.90312 15.5531 1.3125 18.1781 1.3125 21H9.1875V13.125H2.95312Z" fill="#428BC1"/>
</svg>
