<svg width="40" height="41" viewBox="0 0 40 41" fill="none" xmlns="http://www.w3.org/2000/svg">
<path d="M39.9999 20.5C39.9999 17.8735 39.4826 15.2728 38.4775 12.8463C37.4724 10.4198 35.9992 8.21502 34.1421 6.35785C32.2849 4.50068 30.0801 3.0275 27.6536 2.02241C25.2271 1.01731 22.6264 0.5 20 0.5C17.3735 0.5 14.7728 1.01731 12.3463 2.02241C9.9198 3.0275 7.71502 4.50069 5.85785 6.35785C4.00068 8.21502 2.5275 10.4198 1.52241 12.8463C0.517314 15.2728 -2.2961e-07 17.8735 0 20.5L20 20.5H39.9999Z" fill="#206DE6"/>
<path d="M8.56718e-05 20.5C8.54422e-05 23.1265 0.5174 25.7272 1.52249 28.1537C2.52758 30.5802 4.00077 32.785 5.85794 34.6421C7.7151 36.4993 9.91988 37.9725 12.3464 38.9776C14.7729 39.9827 17.3736 40.5 20 40.5C22.6265 40.5 25.2272 39.9827 27.6537 38.9776C30.0802 37.9725 32.285 36.4993 34.1421 34.6421C35.9993 32.785 37.4725 30.5802 38.4776 28.1537C39.4827 25.7272 40 23.1265 40 20.5L20 20.5L8.56718e-05 20.5Z" fill="#FFEB3B"/>
<path d="M20.26 8.46289C15.3485 8.46289 11.3711 12.5045 11.3711 17.4952C11.3711 22.0471 17.0258 29.5689 19.3158 32.396C19.808 32.9981 20.7119 32.9981 21.2041 32.396C23.4941 29.5689 29.1488 22.0267 29.1488 17.4952C29.1388 12.5045 25.1614 8.46289 20.26 8.46289ZM20.26 20.5876C18.5224 20.5876 17.1162 19.1588 17.1162 17.3932C17.1162 15.6275 18.5224 14.1987 20.26 14.1987C21.9976 14.1987 23.4037 15.6275 23.4037 17.3932C23.4037 19.1588 21.9976 20.5876 20.26 20.5876Z" fill="white"/>
</svg>
