<svg width="302" height="237" viewBox="0 0 302 237" fill="none" xmlns="http://www.w3.org/2000/svg">
<path d="M153.916 237V233.444L149.056 232.474L142.253 228.271L138.041 223.099L136.097 216.956L132.857 214.693L130.914 213.077L127.674 207.581L121.194 204.348L112.447 200.792L104.672 196.589L96.2484 194.649L87.1771 198.852H80.6976H74.5421H67.4147H60.6112L52.5119 200.792L48.3002 196.589H44.7365L39.2289 193.356H32.4255L26.9179 191.416L22.0583 186.567L24.0022 183.011L25.946 181.718H30.1577V176.868L24.6501 173.959V171.049L28.2138 170.403L26.9179 165.877L22.0583 164.584L20.1145 158.764L15.9028 154.562L17.1987 148.742L18.4946 141.63L15.9028 138.721L12.3391 136.781L10.7192 133.871L12.3391 131.285L15.9028 126.759L22.0583 124.173L24.0022 117.384L30.1577 107.362L34.6933 99.926L33.3974 92.8137L31.4536 85.3781L28.2138 78.9123V71.8L24.0022 60.1616L15.9028 53.6959L12.3391 51.4329L4.88769 49.8164L1 47.2301V41.411V34.9452L10.7192 30.0959L17.5227 27.5096L28.2138 31.7123L37.2851 31.389L42.7927 33.6521L44.7365 30.0959L58.6674 24.2767L70.3304 25.5699L77.1339 24.2767L86.2052 25.5699L94.3045 22.0137L95.6004 15.5479L101.756 13.2849L104.672 19.7507H109.855L114.391 16.1945L130.266 21.0438L135.449 15.8712L138.041 19.7507H140.957L143.225 13.6082L150.676 12.9616L152.944 15.8712H174.65L165.255 8.43562L166.875 1L179.834 4.23288L186.313 3.5863L193.765 10.0521L196.032 12.9616L191.173 17.811L195.384 18.4575H206.076L210.611 25.5699L208.343 29.4493L205.104 30.4192L197.004 31.0658L195.384 37.2082L197.652 38.8247L203.484 38.1781L203.808 34.6219H206.076L207.695 38.5014L211.583 39.1479L216.119 43.3507L219.359 45.2904L221.302 42.0575H224.866L225.838 46.2603H230.698L238.473 41.0877L241.389 42.7041L239.769 45.2904V51.7562L243.009 49.4932L246.248 49.8164L248.192 57.2521L252.404 57.5753L257.587 61.4548L262.771 61.7781V69.8603L260.503 72.7699L252.08 80.2055L240.741 85.0548L237.501 92.1671L234.261 96.3699L236.853 98.9562L237.501 104.452L247.544 108.332V113.181L244.305 115.767L245.276 119.647L249.488 122.233L254.996 125.789L267.955 134.841L273.786 140.984L284.801 142.6L301 151.975" stroke="#283891"/>
<path d="M204.069 67.1566L204.372 67.5534C204.407 67.5267 204.439 67.4954 204.466 67.4604L204.069 67.1566ZM194.852 74.2045L194.548 73.8076C194.456 73.8781 194.391 73.9785 194.365 74.0914L194.852 74.2045ZM189.311 97.9437L189.779 98.119C189.787 98.0987 189.793 98.0779 189.798 98.0567L189.311 97.9437ZM183.155 114.326L183.336 114.792C183.469 114.74 183.573 114.634 183.623 114.501L183.155 114.326ZM165.394 121.236L165.213 120.77C165.119 120.807 165.038 120.871 164.981 120.954L165.394 121.236ZM156.724 133.902L156.312 133.62C156.205 133.777 156.195 133.98 156.288 134.146L156.724 133.902ZM164.403 147.653L164.901 147.613C164.896 147.541 164.875 147.472 164.839 147.409L164.403 147.653ZM165.62 163.168L165.892 163.587C166.046 163.487 166.133 163.311 166.119 163.128L165.62 163.168ZM147.089 175.187L147.182 175.678C147.246 175.666 147.306 175.642 147.361 175.607L147.089 175.187ZM122.509 179.881L122.361 180.359C122.439 180.383 122.522 180.388 122.602 180.372L122.509 179.881ZM106.559 174.974L106.707 174.496C106.653 174.48 106.597 174.472 106.541 174.475L106.559 174.974ZM75.3918 176.133L75.3737 175.634C75.3423 175.635 75.3111 175.639 75.2805 175.646L75.3918 176.133ZM207.338 62.8931L207.735 63.1969C207.798 63.1155 207.833 63.0168 207.838 62.9143L207.338 62.8931ZM54.0456 181.536C54.3149 181.474 54.4834 181.206 54.422 180.937C54.3606 180.668 54.0925 180.5 53.8232 180.561L54.0456 181.536ZM58.1146 179.578C57.8453 179.64 57.6768 179.908 57.7383 180.177C57.7997 180.446 58.0678 180.614 58.3371 180.553L58.1146 179.578ZM66.92 178.587C67.1893 178.525 67.3578 178.257 67.2964 177.988C67.235 177.719 66.9669 177.551 66.6976 177.612L66.92 178.587ZM70.9891 176.629C70.7198 176.691 70.5513 176.959 70.6127 177.228C70.6741 177.497 70.9422 177.665 71.2115 177.604L70.9891 176.629ZM80.6044 176.44C80.8804 176.429 81.0961 176.197 81.0861 175.922C81.0761 175.646 80.8443 175.43 80.5682 175.441L80.6044 176.44ZM85.7628 175.247C85.4868 175.258 85.2711 175.49 85.281 175.766C85.291 176.041 85.5229 176.257 85.7989 176.246L85.7628 175.247ZM96.188 175.86C96.464 175.85 96.6797 175.618 96.6697 175.342C96.6598 175.066 96.4279 174.851 96.1519 174.861L96.188 175.86ZM101.346 174.668C101.07 174.678 100.855 174.91 100.865 175.186C100.875 175.462 101.106 175.677 101.383 175.667L101.346 174.668ZM111.728 177.088C111.992 177.169 112.272 177.021 112.353 176.757C112.435 176.493 112.287 176.213 112.023 176.132L111.728 177.088ZM117.34 177.768C117.076 177.687 116.796 177.835 116.714 178.099C116.633 178.362 116.781 178.642 117.044 178.723L117.34 177.768ZM126.699 179.59C126.97 179.538 127.148 179.276 127.097 179.005C127.045 178.734 126.783 178.556 126.512 178.608L126.699 179.59ZM130.609 177.826C130.337 177.878 130.159 178.139 130.211 178.41C130.262 178.682 130.524 178.859 130.795 178.808L130.609 177.826ZM138.989 177.243C139.26 177.191 139.438 176.929 139.387 176.658C139.335 176.387 139.073 176.209 138.802 176.261L138.989 177.243ZM142.899 175.479C142.627 175.531 142.449 175.792 142.501 176.064C142.552 176.335 142.814 176.513 143.085 176.461L142.899 175.479ZM153.538 171.6C153.77 171.45 153.836 171.14 153.686 170.909C153.536 170.677 153.226 170.611 152.994 170.762L153.538 171.6ZM159.171 166.755C158.939 166.906 158.873 167.215 159.023 167.447C159.174 167.678 159.483 167.744 159.715 167.594L159.171 166.755ZM165.713 157.957C165.691 157.681 165.451 157.476 165.175 157.498C164.9 157.52 164.694 157.761 164.716 158.036L165.713 157.957ZM164.31 152.864C164.332 153.139 164.572 153.345 164.848 153.323C165.123 153.301 165.329 153.06 165.307 152.785L164.31 152.864ZM162.28 142.825C162.145 142.584 161.841 142.498 161.6 142.633C161.358 142.768 161.272 143.072 161.406 143.313L162.28 142.825ZM158.847 138.729C158.982 138.97 159.286 139.056 159.527 138.922C159.769 138.787 159.855 138.482 159.721 138.241L158.847 138.729ZM160.027 129.962C160.183 129.734 160.125 129.423 159.897 129.267C159.669 129.111 159.358 129.17 159.201 129.398L160.027 129.962ZM162.091 125.176C161.935 125.404 161.993 125.715 162.221 125.871C162.449 126.026 162.761 125.968 162.917 125.74L162.091 125.176ZM171.495 119.398C171.753 119.298 171.88 119.008 171.78 118.751C171.68 118.494 171.391 118.366 171.133 118.467L171.495 119.398ZM177.054 116.163C176.796 116.264 176.668 116.553 176.768 116.811C176.868 117.068 177.158 117.195 177.416 117.095L177.054 116.163ZM185.675 109.04C185.772 108.782 185.642 108.494 185.383 108.397C185.124 108.3 184.836 108.431 184.739 108.69L185.675 109.04ZM186.791 103.229C186.694 103.488 186.825 103.776 187.083 103.873C187.342 103.969 187.63 103.838 187.727 103.58L186.791 103.229ZM190.922 93.2401C190.985 92.9712 190.818 92.7026 190.549 92.6401C190.28 92.5777 190.011 92.7451 189.948 93.014L190.922 93.2401ZM191.073 88.1973C191.01 88.4662 191.177 88.7349 191.446 88.7973C191.715 88.8597 191.984 88.6923 192.047 88.4234L191.073 88.1973ZM193.893 80.5104C193.956 80.2415 193.789 79.9728 193.52 79.9104C193.251 79.848 192.982 80.0153 192.919 80.2843L193.893 80.5104ZM193.642 77.1878C193.579 77.4568 193.746 77.7254 194.015 77.7878C194.284 77.8502 194.553 77.6829 194.616 77.4139L193.642 77.1878ZM198.228 72.2521C198.447 72.0842 198.489 71.7705 198.321 71.5513C198.154 71.3321 197.84 71.2905 197.62 71.4583L198.228 72.2521ZM200.693 69.109C200.473 69.2768 200.431 69.5906 200.599 69.8098C200.767 70.029 201.081 70.0706 201.3 69.9027L200.693 69.109ZM205.555 66.0392C205.724 65.82 205.682 65.5063 205.463 65.3385C205.244 65.1707 204.93 65.2124 204.762 65.4316L205.555 66.0392ZM205.852 64.0104C205.683 64.2297 205.725 64.5434 205.944 64.7112C206.163 64.879 206.477 64.8373 206.645 64.6181L205.852 64.0104ZM207.922 60.991C207.934 60.7152 207.72 60.4821 207.444 60.4704C207.168 60.4587 206.934 60.6728 206.922 60.9486L207.922 60.991ZM207.006 59.0254C206.994 59.3012 207.208 59.5343 207.484 59.546C207.76 59.5577 207.993 59.3436 208.005 59.0678L207.006 59.0254ZM49.7541 182.519L54.0456 181.536L53.8232 180.561L49.5317 181.544L49.7541 182.519ZM58.3371 180.553L66.92 178.587L66.6976 177.612L58.1146 179.578L58.3371 180.553ZM71.2115 177.604L75.503 176.621L75.2805 175.646L70.9891 176.629L71.2115 177.604ZM75.4098 176.633L80.6044 176.44L80.5682 175.441L75.3737 175.634L75.4098 176.633ZM85.7989 176.246L96.188 175.86L96.1519 174.861L85.7628 175.247L85.7989 176.246ZM101.383 175.667L106.577 175.474L106.541 174.475L101.346 174.668L101.383 175.667ZM106.411 175.452L111.728 177.088L112.023 176.132L106.707 174.496L106.411 175.452ZM117.044 178.723L122.361 180.359L122.656 179.404L117.34 177.768L117.044 178.723ZM122.602 180.372L126.699 179.59L126.512 178.608L122.415 179.39L122.602 180.372ZM130.795 178.808L138.989 177.243L138.802 176.261L130.609 177.826L130.795 178.808ZM143.085 176.461L147.182 175.678L146.995 174.696L142.899 175.479L143.085 176.461ZM147.361 175.607L153.538 171.6L152.994 170.762L146.817 174.768L147.361 175.607ZM159.715 167.594L165.892 163.587L165.348 162.749L159.171 166.755L159.715 167.594ZM166.119 163.128L165.713 157.957L164.716 158.036L165.122 163.208L166.119 163.128ZM165.307 152.785L164.901 147.613L163.904 147.692L164.31 152.864L165.307 152.785ZM164.839 147.409L162.28 142.825L161.406 143.313L163.966 147.897L164.839 147.409ZM159.721 138.241L157.161 133.658L156.288 134.146L158.847 138.729L159.721 138.241ZM157.137 134.184L160.027 129.962L159.201 129.398L156.312 133.62L157.137 134.184ZM162.917 125.74L165.806 121.518L164.981 120.954L162.091 125.176L162.917 125.74ZM165.575 121.702L171.495 119.398L171.133 118.467L165.213 120.77L165.575 121.702ZM177.416 117.095L183.336 114.792L182.974 113.86L177.054 116.163L177.416 117.095ZM183.623 114.501L185.675 109.04L184.739 108.69L182.687 114.151L183.623 114.501ZM187.727 103.58L189.779 98.119L188.843 97.7684L186.791 103.229L187.727 103.58ZM189.798 98.0567L190.922 93.2401L189.948 93.014L188.824 97.8306L189.798 98.0567ZM192.047 88.4234L193.171 83.6068L192.197 83.3807L191.073 88.1973L192.047 88.4234ZM193.171 83.6068L193.893 80.5104L192.919 80.2843L192.197 83.3807L193.171 83.6068ZM194.616 77.4139L195.339 74.3175L194.365 74.0914L193.642 77.1878L194.616 77.4139ZM195.155 74.6014L198.228 72.2521L197.62 71.4583L194.548 73.8076L195.155 74.6014ZM201.3 69.9027L204.372 67.5534L203.765 66.7597L200.693 69.109L201.3 69.9027ZM204.466 67.4604L205.555 66.0392L204.762 65.4316L203.672 66.8527L204.466 67.4604ZM206.645 64.6181L207.735 63.1969L206.941 62.5893L205.852 64.0104L206.645 64.6181ZM207.838 62.9143L207.922 60.991L206.922 60.9486L206.839 62.8719L207.838 62.9143ZM208.005 59.0678L208.089 57.1445L207.09 57.1021L207.006 59.0254L208.005 59.0678Z" fill="#A71E3B"/>
<path d="M185.46 113.806C185.46 115.191 184.334 116.316 182.942 116.316C181.55 116.316 180.424 115.191 180.424 113.806C180.424 112.421 181.55 111.296 182.942 111.296C184.334 111.296 185.46 112.421 185.46 113.806Z" fill="white" stroke="#A71E3B"/>
<ellipse cx="182.942" cy="113.808" rx="1.50905" ry="1.50493" fill="#A71E3B"/>
<path d="M125.099 179.522C125.099 180.906 123.973 182.031 122.581 182.031C121.189 182.031 120.062 180.906 120.062 179.522C120.062 178.137 121.189 177.012 122.581 177.012C123.973 177.012 125.099 178.137 125.099 179.522Z" fill="white" stroke="#A71E3B"/>
<ellipse cx="122.58" cy="179.523" rx="1.50905" ry="1.50493" fill="#A71E3B"/>
<path d="M78.3194 176.011C78.3194 177.396 77.1933 178.521 75.8013 178.521C74.4093 178.521 73.2832 177.396 73.2832 176.011C73.2832 174.626 74.4093 173.501 75.8013 173.501C77.1933 173.501 78.3194 174.626 78.3194 176.011Z" fill="white" stroke="#A71E3B"/>
<ellipse cx="75.801" cy="176.012" rx="1.50905" ry="1.50493" fill="#A71E3B"/>
<path d="M205.037 52.103C203.645 52.3613 202.708 52.844 202.708 53.3968C202.708 54.2217 204.794 54.8904 207.366 54.8904C209.939 54.8904 212.025 54.2217 212.025 53.3968C212.025 52.844 211.088 52.3613 209.696 52.103" stroke="#A71E3B" stroke-linecap="round" stroke-linejoin="round"/>
<g clip-path="url(#clip0_3305_10853)">
<path d="M207.226 52.725C206.245 51.549 204.065 48.6987 204.065 47.0977C204.065 45.1552 205.679 43.5806 207.671 43.5806C209.661 43.5806 211.276 45.1552 211.276 47.0977C211.276 48.6987 209.079 51.549 208.116 52.725C207.885 53.0053 207.456 53.0053 207.226 52.725ZM207.671 48.27C208.333 48.27 208.872 47.7443 208.872 47.0977C208.872 46.451 208.333 45.9253 207.671 45.9253C207.008 45.9253 206.469 46.451 206.469 47.0977C206.469 47.7443 207.008 48.27 207.671 48.27Z" fill="#A71E3B"/>
</g>
<path d="M197.532 75.1827C197.532 76.5676 196.406 77.6926 195.014 77.6926C193.622 77.6926 192.496 76.5676 192.496 75.1827C192.496 73.7978 193.622 72.6729 195.014 72.6729C196.406 72.6729 197.532 73.7978 197.532 75.1827Z" fill="white" stroke="#A71E3B"/>
<ellipse cx="195.014" cy="75.1841" rx="1.50905" ry="1.50493" fill="#A71E3B"/>
<path d="M38.1502 186.362C36.8275 186.664 35.9375 187.227 35.9375 187.872C35.9375 188.834 37.9188 189.614 40.363 189.614C42.8071 189.614 44.7884 188.834 44.7884 187.872C44.7884 187.227 43.8985 186.664 42.5757 186.362" stroke="#A71E3B" stroke-linecap="round" stroke-linejoin="round"/>
<g clip-path="url(#clip1_3305_10853)">
<path d="M47.4932 179.86C47.3988 179.86 47.3007 179.882 47.2068 179.929C46.529 180.269 46.0265 180.385 45.6072 180.385C44.7177 180.385 44.2007 179.865 43.1763 179.865C42.6606 179.865 42.0198 179.995 41.1393 180.388V180.382C41.1393 180.092 40.9204 179.859 40.6476 179.859C40.3749 179.859 40.1559 180.092 40.1559 180.382L40.1553 187.96C40.1553 188.103 40.2667 188.222 40.4011 188.222H40.8935C41.0279 188.222 41.1393 188.104 41.1393 187.96V186.131C41.9344 185.741 42.5639 185.611 43.1108 185.611C44.2032 185.611 44.964 186.13 46.0565 186.13C46.5299 186.13 47.0656 186.033 47.7176 185.753C47.9051 185.672 48.0234 185.484 48.0234 185.283V180.361C48.0234 180.056 47.7744 179.86 47.4932 179.86ZM47.0399 182.175C46.5484 182.405 46.1516 182.512 45.8106 182.543V183.853C46.2016 183.829 46.6034 183.739 47.0399 183.569V184.904C46.6891 185.026 46.3649 185.085 46.056 185.085C45.9723 185.085 45.8915 185.078 45.8106 185.071V183.853C45.7425 183.857 45.674 183.863 45.6064 183.863C45.2097 183.863 44.8788 183.789 44.5814 183.699V184.791C44.2155 184.693 43.8104 184.605 43.3521 184.579V183.34C43.2937 183.35 43.2368 183.343 43.1753 183.343C42.8726 183.343 42.5085 183.415 42.1228 183.536V184.664C41.8031 184.749 41.4758 184.854 41.1393 184.994V183.954L41.5199 183.784C41.7355 183.689 41.9322 183.614 42.1228 183.536V182.201C41.8293 182.285 41.5096 182.394 41.1393 182.559V181.522L41.5199 181.352C41.7355 181.256 41.9322 181.182 42.1228 181.117V182.201C42.5283 182.088 42.8771 182.036 43.175 182.036C43.2376 182.036 43.293 182.043 43.3521 182.047V180.921C43.6379 180.947 43.8807 181.028 44.1695 181.131C44.3002 181.176 44.4384 181.222 44.5814 181.266V182.345C44.9008 182.457 45.2183 182.557 45.6064 182.557C45.6711 182.557 45.7414 182.549 45.8106 182.543V181.42C46.2016 181.396 46.6034 181.306 47.0399 181.137V182.175ZM43.3521 182.046V183.354C43.638 183.379 43.8802 183.46 44.17 183.563C44.3002 183.609 44.4384 183.655 44.5814 183.699V182.345C44.2141 182.216 43.8376 182.077 43.3521 182.046Z" fill="#A71E3B"/>
</g>
<defs>
<clipPath id="clip0_3305_10853">
<rect width="7.21021" height="9.37895" fill="white" transform="translate(204.065 43.5806)"/>
</clipPath>
<clipPath id="clip1_3305_10853">
<rect width="8.85093" height="8.3622" fill="white" transform="translate(39.6641 179.859)"/>
</clipPath>
</defs>
</svg>
