<svg width="302" height="207" viewBox="0 0 302 207" fill="none" xmlns="http://www.w3.org/2000/svg">
<path fill-rule="evenodd" clip-rule="evenodd" d="M147.693 84.0045L150.028 80.5009L149.196 79.9463L146.861 83.45C146.707 83.6798 146.77 83.9902 146.999 84.1433C147.229 84.2965 147.54 84.2343 147.693 84.0045ZM145.358 87.5082C145.511 87.2784 145.449 86.968 145.219 86.8149C144.989 86.6617 144.679 86.7239 144.525 86.9536L142.19 90.4573C142.117 90.568 142.09 90.7035 142.116 90.8339C142.143 90.9642 142.22 91.0787 142.331 91.152L145.37 93.1566C145.6 93.3087 145.91 93.2451 146.062 93.0146C146.214 92.7841 146.151 92.474 145.92 92.3219L143.301 90.5939L145.358 87.5082ZM148.959 94.3265C148.728 94.1745 148.418 94.238 148.266 94.4685C148.114 94.699 148.178 95.0092 148.408 95.1612L151.281 97.0563L152.393 101.797C152.456 102.066 152.725 102.233 152.994 102.17C153.263 102.107 153.43 101.838 153.367 101.569L152.209 96.6343C152.18 96.51 152.104 96.4015 151.998 96.3312L148.959 94.3265ZM154.524 106.503C154.461 106.234 154.192 106.068 153.923 106.131C153.654 106.194 153.488 106.463 153.551 106.732L154.708 111.666C154.712 111.681 154.716 111.695 154.72 111.709L155.588 114.331C155.675 114.593 155.958 114.735 156.22 114.648C156.482 114.561 156.625 114.278 156.538 114.016L155.677 111.416L154.524 106.503ZM157.406 116.638C157.319 116.376 157.036 116.233 156.774 116.32C156.512 116.407 156.37 116.69 156.457 116.952L157.271 119.411L156.46 121.718C156.368 121.978 156.505 122.264 156.765 122.355C157.026 122.447 157.311 122.31 157.403 122.05L158.271 119.582C158.308 119.478 158.309 119.364 158.274 119.259L157.406 116.638ZM156.535 124.517C156.626 124.256 156.49 123.971 156.229 123.879C155.969 123.788 155.683 123.924 155.591 124.185L154.841 126.318H153.025C152.748 126.318 152.525 126.542 152.525 126.818C152.525 127.094 152.748 127.318 153.025 127.318H155.195C155.407 127.318 155.596 127.184 155.667 126.984L156.535 124.517ZM149.145 127.318H150.854C151.13 127.318 151.354 127.094 151.354 126.818C151.354 126.542 151.13 126.318 150.854 126.318H148.684V126.815L148.189 126.772L147.894 130.161C147.871 130.436 148.074 130.679 148.349 130.703C148.625 130.726 148.867 130.523 148.891 130.248L149.145 127.318ZM148.597 133.637C148.62 133.362 148.417 133.12 148.142 133.096C147.867 133.072 147.624 133.276 147.6 133.551L147.306 136.94C147.295 137.075 147.338 137.209 147.427 137.311L148.897 139.006C149.078 139.214 149.394 139.237 149.603 139.056C149.811 138.875 149.834 138.559 149.653 138.351L148.321 136.816L148.597 133.637ZM151.123 140.045C150.942 139.837 150.627 139.814 150.418 139.995C150.209 140.176 150.187 140.492 150.368 140.701L151.716 142.254V145.118C151.716 145.394 151.94 145.618 152.216 145.618C152.493 145.618 152.716 145.394 152.716 145.118V142.068C152.716 141.947 152.673 141.831 152.594 141.74L151.123 140.045ZM152.716 148.169C152.716 147.893 152.493 147.669 152.216 147.669C151.94 147.669 151.716 147.893 151.716 148.169V150.581L150.277 150.226C150.009 150.159 149.738 150.323 149.672 150.591C149.606 150.859 149.77 151.13 150.038 151.196L152.097 151.705C152.246 151.742 152.404 151.708 152.525 151.613C152.646 151.518 152.716 151.373 152.716 151.219V148.169ZM146.159 149.209C146.018 149.174 145.869 149.202 145.75 149.286C145.632 149.37 145.556 149.502 145.542 149.646L145.248 152.697C145.221 152.972 145.422 153.216 145.697 153.242C145.972 153.269 146.217 153.068 146.243 152.793L146.482 150.318L147.979 150.688C148.247 150.754 148.518 150.591 148.584 150.322C148.65 150.054 148.486 149.783 148.218 149.717L146.159 149.209ZM145.949 155.843C145.975 155.568 145.774 155.324 145.499 155.298C145.224 155.271 144.98 155.472 144.954 155.747L144.663 158.761L144.098 161.024C144.031 161.292 144.194 161.564 144.462 161.631C144.73 161.697 145.001 161.534 145.068 161.266L145.642 158.967C145.648 158.943 145.652 158.918 145.655 158.894L145.949 155.843ZM144.494 163.566C144.561 163.298 144.398 163.027 144.13 162.96C143.862 162.893 143.591 163.056 143.524 163.324L142.95 165.623C142.934 165.688 142.931 165.754 142.941 165.82L143.143 167.153C143.185 167.426 143.44 167.614 143.713 167.573C143.986 167.531 144.174 167.276 144.132 167.003L143.944 165.768L144.494 163.566ZM144.335 168.337C144.293 168.064 144.038 167.876 143.765 167.918C143.492 167.959 143.305 168.214 143.346 168.487L143.549 169.821C143.59 170.094 143.845 170.282 144.118 170.24C144.391 170.199 144.579 169.944 144.537 169.671L144.335 168.337Z" fill="#A71E3B"/>
<path d="M85.0129 36.3803L76.8316 32.5681L73.2146 31.3301H69.9134L67.2311 30.2985L64.2869 26.7909L58.5653 24.934L56.0894 21.4264H47.8363L41.8528 13.586L39.9959 13.1733L39.3769 12.7607L36.282 11.729L34.8377 9.04677L32.5681 7.18982H31.1238L25.553 9.04677L21.8391 5.95186L15.0303 2.23796L7.39615 1L4.09491 4.71389L1 9.04677L2.85695 13.586L7.39615 16.0619L9.87208 18.9505L12.967 19.7758L15.0303 24.934V28.4415L16.6809 32.5681L20.1884 31.3301V32.5681L22.6644 34.425L27.4099 38.5587L37.9326 40.7371L39.3769 42.8845L41.8528 47.63H43.9161L46.1857 49.8996L47.8363 55.8831V58.7717V60.8349H52.9945L56.9147 63.9299L60.8349 66.4058L63.5172 74.2462L64.2869 81.8803V91.5777L65.1678 101.894V106.433L68.2627 113.655L67.2311 117.575L68.2627 121.083L66.6121 126.241L64.2869 127.272L62.0729 131.812L57.74 135.938L54.8514 138.208L50.1059 141.216L51.4695 142.033L56.651 145.845H61.2871L64.2869 151.019L70.5592 145.845L73.8318 146.934L77.9224 148.568H81.195L86.9219 149.385L89.9217 151.019L92.3761 153.742L97.8303 154.286L101.376 145.845H103.83L108.193 146.934H112.829L114.466 149.385L111.739 151.019V152.925L112.829 154.831L116.102 153.742L118.284 156.737L122.374 162.183L125.92 166.54L129.192 167.901L127.829 170.352L129.192 173.62L130.01 177.432L132.465 176.615L137.646 177.432L140.646 180.427L141.191 183.695L145.282 182.606L152.373 185.873H156.463L160.008 182.606L167.917 183.695L170.644 182.606L173.371 185.056L176.098 180.427L178.553 179.066L184.28 184.512L185.916 182.606L190.552 185.873L192.461 185.056L196.279 186.69L199.006 183.695L203.642 185.873L210.46 186.69L209.642 183.695L207.733 181.789H210.46L212.914 182.606L215.641 183.695L221.914 179.61L229.55 174.709L233.095 172.531L235.277 173.62L238.277 176.07L239.913 174.709L242.094 176.07L244.549 178.521L248.367 180.7L250.003 181.789L256.003 183.695L251.094 185.873V187.235L253.821 189.685L256.821 191.864L262.548 195.404L268.547 196.765L273.456 195.404H277.001L279.729 198.671L281.365 201.667L284.365 203.028L286.274 204.117L288.728 206.296L290.364 205.751L291.182 204.117L293.091 203.028H295.819L298.818 200.305L301 195.404L300.182 191.864L298.818 188.869L295 185.873L291.182 184.512L289.546 181.789L287.092 179.61L283.547 177.16L282.728 174.709V173.62L284.365 171.714L282.728 169.263L279.729 168.446H278.91V165.451L279.729 159.732L281.365 158.915H286.274L288.728 157.554L291.182 153.742L292.001 151.291L290.364 148.296H287.092L284.91 147.207L283.547 144.484L281.365 142.577H276.456L275.638 140.671H270.729L268.547 137.948L266.911 134.681L263.366 133.592L260.093 131.141L258.457 129.235L256.003 126.239L256.821 122.427L259.275 118.07L262.002 113.986L263.366 109.357L260.093 106.906L257.366 105.272L253.821 103.911H249.185H244.822L242.913 102.549L241.549 100.099L239.913 97.3756L238.277 95.1972L236.913 91.9296L233.913 91.385H232.822L229.004 90.0235L225.732 87.0282L223.55 85.939L221.096 88.9343L217.55 95.1972L216.46 90.5681L213.46 85.3944L208.278 84.0329L202.551 85.3944H194.37L192.188 88.9343L188.098 91.385L183.462 90.0235L181.825 91.385L178.007 92.7465L173.917 90.5681L170.371 88.9343L167.917 85.939L172.826 82.3991L170.371 77.77L164.645 76.4085V72.8686L156.736 67.9671L145.827 63.6103L138.737 55.9859V50.8122L133.828 48.9061L129.738 45.3662H124.829H119.102L115.557 40.7371L111.739 38.5587L107.375 37.1972L101.103 36.3803L95.9214 38.5587L89.1036 35.5634L85.0129 36.3803Z" stroke="#283891"/>
<path d="M149.865 76.3096C148.694 76.5007 147.905 76.858 147.905 77.2673C147.905 77.8779 149.66 78.3728 151.825 78.3728C153.991 78.3728 155.746 77.8779 155.746 77.2673C155.746 76.858 154.957 76.5007 153.786 76.3096" stroke="#A71E3B" stroke-linecap="round" stroke-linejoin="round"/>
<g clip-path="url(#clip0_3364_8664)">
<path d="M151.436 76.6274C150.646 75.6772 148.89 73.3742 148.89 72.0806C148.89 70.5111 150.19 69.2388 151.795 69.2388C153.398 69.2388 154.7 70.5111 154.7 72.0806C154.7 73.3742 152.929 75.6772 152.153 76.6274C151.967 76.8539 151.622 76.8539 151.436 76.6274ZM151.795 73.0278C152.329 73.0278 152.763 72.603 152.763 72.0806C152.763 71.5581 152.329 71.1333 151.795 71.1333C151.261 71.1333 150.826 71.5581 150.826 72.0806C150.826 72.603 151.261 73.0278 151.795 73.0278Z" fill="#A71E3B"/>
</g>
<path d="M141.095 172.458C139.985 172.687 139.238 173.116 139.238 173.607C139.238 174.34 140.901 174.934 142.952 174.934C145.003 174.934 146.666 174.34 146.666 173.607C146.666 173.116 145.919 172.687 144.809 172.458" stroke="#A71E3B" stroke-linecap="round" stroke-linejoin="round"/>
<g clip-path="url(#clip1_3364_8664)">
<path d="M148.285 167.094C148.206 167.094 148.123 167.111 148.045 167.149C147.476 167.418 147.054 167.509 146.702 167.509C145.956 167.509 145.522 167.098 144.662 167.098C144.229 167.098 143.692 167.201 142.953 167.511V167.506C142.953 167.278 142.769 167.094 142.54 167.094C142.311 167.094 142.127 167.278 142.127 167.506L142.127 173.49C142.127 173.603 142.22 173.696 142.333 173.696H142.746C142.859 173.696 142.953 173.603 142.953 173.49V172.046C143.62 171.738 144.148 171.635 144.607 171.635C145.524 171.635 146.162 172.045 147.079 172.045C147.477 172.045 147.926 171.968 148.473 171.747C148.631 171.683 148.73 171.535 148.73 171.376V167.49C148.73 167.249 148.521 167.094 148.285 167.094ZM147.905 168.922C147.492 169.103 147.159 169.188 146.873 169.212V170.247C147.201 170.228 147.538 170.157 147.905 170.023V171.077C147.61 171.173 147.338 171.22 147.079 171.22C147.009 171.22 146.941 171.215 146.873 171.209V170.247C146.816 170.25 146.758 170.255 146.702 170.255C146.369 170.255 146.091 170.196 145.841 170.125V170.988C145.534 170.91 145.194 170.841 144.81 170.821V169.842C144.761 169.85 144.713 169.844 144.661 169.844C144.407 169.844 144.102 169.901 143.778 169.997V170.888C143.51 170.955 143.235 171.037 142.953 171.148V170.327L143.272 170.193C143.453 170.118 143.618 170.058 143.778 169.997V168.943C143.532 169.009 143.264 169.095 142.953 169.225V168.407L143.272 168.273C143.453 168.197 143.618 168.138 143.778 168.087V168.943C144.118 168.853 144.411 168.812 144.661 168.812C144.714 168.812 144.76 168.818 144.81 168.821V167.932C145.05 167.953 145.253 168.016 145.496 168.097C145.605 168.134 145.721 168.17 145.841 168.204V169.056C146.109 169.145 146.376 169.223 146.702 169.223C146.756 169.223 146.815 169.217 146.873 169.212V168.326C147.201 168.307 147.538 168.236 147.905 168.102V168.922ZM144.81 168.82V169.853C145.05 169.873 145.253 169.937 145.496 170.018C145.605 170.055 145.721 170.09 145.841 170.125V169.056C145.533 168.954 145.217 168.845 144.81 168.82Z" fill="#A71E3B"/>
</g>
<circle cx="146.666" cy="150.381" r="1.97593" fill="#F2F2F2" stroke="#A71E3B"/>
<circle cx="146.666" cy="150.381" r="1.23796" fill="#A71E3B"/>
<circle cx="149.556" cy="126.446" r="1.97593" fill="#F2F2F2" stroke="#A71E3B"/>
<circle cx="149.555" cy="126.446" r="1.23796" fill="#A71E3B"/>
<circle cx="144.605" cy="89.721" r="1.97593" fill="#F2F2F2" stroke="#A71E3B"/>
<circle cx="144.604" cy="89.7209" r="1.23796" fill="#A71E3B"/>
<defs>
<clipPath id="clip0_3364_8664">
<rect width="5.80988" height="7.5781" fill="white" transform="translate(148.89 69.2388)"/>
</clipPath>
<clipPath id="clip1_3364_8664">
<rect width="7.42779" height="6.60248" fill="white" transform="translate(141.715 167.094)"/>
</clipPath>
</defs>
</svg>
