<svg width="302" height="150" viewBox="0 0 302 150" fill="none" xmlns="http://www.w3.org/2000/svg">
<path d="M1 73.3259L8.57184 69.7466L17.268 65.464L18.2573 74.0981L5.59262 83.1762L7.77185 92.9938L19.3405 101.951L26.9424 109.148L31.535 118.998L29.3502 128.846L30.0754 136.489L34.7036 137.45L43.7932 144.487L58.7683 149L53.7129 139.054L42.6389 134.414L37.9807 122.677L35.2394 113.211L41.1586 108.352L49.1577 113.758L54.7115 114.911L59.7351 120.636L61.5508 129.91L67.5638 144.27L74.6709 147.15L79.2017 142.003L79.1379 133.561L74.7102 125.149L67.4381 120.83L62.9766 114.754L61.7212 111.683L66.8141 106.185L75.8063 107.115L84.5998 108.94L86.185 114.888L91.3416 117.831L94.8456 119.495L100.165 130.433L104.66 134.175L111.537 133.729L103.77 125.093L102.847 118.346L99.41 112.014L90.088 108.206L87.8414 103.057L80.8654 103.95L76.8012 96.0827L81.4312 90.4879L77.3333 84.9547L75.8792 82.7799L74.161 79.6137L71.4178 76.703L72.6094 71.3311L77.7342 70.0534L85.6021 71.6865L97.6673 78.405L105.966 75.9131L115.389 72.718L119.259 68.3701L121.078 64.5334L124.351 62.8715L129.905 64.0242L135.03 62.7465L139.921 71.2538L154.731 74.3277L167.89 69.5667L175.528 67.874L177.712 58.0257L181.878 58.8902L182.933 69.411L186.866 73.5052L196.122 75.4263L204.121 80.8327L215.559 86.0162L225.079 88.9287L235.194 95.7107L239.59 99.9009L244.315 106.969L249.275 104.253L251.557 100.512L255.79 96.7077L260.75 93.991L268.024 91.7546L271.331 87.7583L270.606 80.1156L272.493 71.6102L273.653 62.0173L276.992 62.2421L284.629 60.5494L287.573 56.0095L289.821 54.6031L296.764 56.044L300.039 47.8267L301 39.1292L297.532 28.5758L289.533 23.1694L281.269 16.7717L278.492 16.1953L273.898 12.9004L264.475 16.0955L261.1 24.7604L265.728 25.721L269.528 32.5971L267.84 40.2073L254.713 49.1892L248.134 48.2921L240.961 43.5255L227.736 46.3998L210.214 44.6362L196.924 45.6238L179.209 25.0895L166.084 27.5162L151.837 17.5353L149.428 4.39203L135.376 6.62656L124.501 1.09149L105.621 9.81606L96.3984 5.56054L87.2732 7.4127L79.173 9.00933L68.5956 2.1313L55.7341 5.54931L36.3276 5.73582L24.7908 1" stroke="#283891" stroke-linejoin="round"/>
<path d="M264.314 73.9938C263.106 74.2598 262.293 74.7547 262.294 75.3199C262.296 76.1634 264.108 76.8441 266.341 76.8405C268.574 76.8368 270.384 76.1501 270.382 75.3067C270.381 74.7414 269.567 74.2492 268.358 73.9871" stroke="#A71E3B" stroke-linecap="round" stroke-linejoin="round"/>
<g clip-path="url(#clip0_3305_10903)">
<path d="M266.13 74.5278C265.26 73.517 263.325 71.0667 263.323 69.6885C263.32 68.0165 264.747 66.6588 266.511 66.6559C268.274 66.653 269.707 68.0061 269.71 69.6781C269.712 71.0562 267.77 73.5128 266.919 74.5265C266.715 74.7681 266.335 74.7687 266.13 74.5278ZM266.518 70.6925C267.105 70.6915 267.582 70.2382 267.581 69.6816C267.58 69.125 267.102 68.6732 266.514 68.6742C265.927 68.6751 265.451 69.1285 265.452 69.6851C265.453 70.2417 265.931 70.6934 266.518 70.6925Z" fill="#A71E3B"/>
</g>
<path d="M19.9536 84.381C18.7426 84.6009 17.9251 85.0252 17.9202 85.5198C17.9129 86.2577 19.7175 86.8727 21.9508 86.8935C24.1842 86.9142 26.0006 86.3327 26.0079 85.5947C26.0128 85.1001 25.2038 84.6608 23.9974 84.4185" stroke="#A71E3B" stroke-linecap="round" stroke-linejoin="round"/>
<g clip-path="url(#clip1_3305_10903)">
<path d="M28.089 78.044C28.0027 78.0432 27.9128 78.062 27.8266 78.1033C27.2043 78.4023 26.7441 78.5015 26.3609 78.498C25.5481 78.4904 25.0803 78.0205 24.1442 78.0117C23.673 78.0073 23.0863 78.1189 22.2783 78.4629L22.2784 78.4573C22.2809 78.198 22.0829 77.9879 21.8337 77.9856C21.5844 77.9833 21.3823 78.1897 21.3797 78.449L21.3122 85.2286C21.311 85.3565 21.4117 85.4634 21.5346 85.4645L21.9845 85.4687C22.1073 85.4698 22.2102 85.3656 22.2114 85.237L22.2276 83.6005C22.9575 83.2586 23.5339 83.1477 24.0336 83.1523C25.0318 83.1615 25.7224 83.6323 26.7207 83.6416C27.1533 83.6456 27.6437 83.5629 28.2419 83.3183C28.4139 83.2473 28.5237 83.0802 28.5255 82.9005L28.5689 78.4973C28.5716 78.2236 28.3459 78.0463 28.089 78.044ZM27.6543 80.1117C27.2031 80.3126 26.8396 80.405 26.5278 80.4298L26.5162 81.6018C26.8736 81.5835 27.2416 81.5069 27.642 81.3589L27.6302 82.5532C27.3086 82.6589 27.0118 82.7094 26.7295 82.7068C26.6531 82.706 26.5792 82.6991 26.5054 82.6917L26.5162 81.6018C26.4539 81.605 26.3912 81.6102 26.3295 81.6096C25.967 81.6063 25.6653 81.537 25.3943 81.4536L25.3846 82.4313C25.0512 82.3397 24.6818 82.258 24.2632 82.2312L24.2742 81.1222C24.2207 81.1305 24.1688 81.1241 24.1127 81.1236C23.836 81.1211 23.5026 81.1823 23.1491 81.2871L23.1392 82.2968C22.8464 82.37 22.5464 82.4608 22.2376 82.5836L22.2468 81.6528L22.5961 81.5042C22.7939 81.4212 22.9743 81.3556 23.1491 81.2871L23.1609 80.0934C22.892 80.1654 22.599 80.2606 22.2591 80.405L22.2683 79.4772L22.6176 79.3286C22.8154 79.2444 22.9958 79.1796 23.1705 79.1235L23.1609 80.0934C23.5325 79.9952 23.8517 79.9516 24.1239 79.9543C24.1811 79.9548 24.2316 79.9618 24.2856 79.9655L24.2955 78.9587C24.5564 78.9841 24.7776 79.0584 25.0407 79.1526C25.1596 79.1947 25.2856 79.237 25.4158 79.2773L25.4062 80.2426C25.6972 80.3453 25.9864 80.4374 26.341 80.4407C26.4001 80.4412 26.4644 80.4349 26.5278 80.4298L26.5377 79.4253C26.8951 79.407 27.2631 79.3304 27.6635 79.1824L27.6543 80.1117ZM24.2856 79.965L24.274 81.1345C24.5351 81.1598 24.7557 81.2342 25.0196 81.3284C25.1381 81.3713 25.2641 81.413 25.3943 81.4536L25.4062 80.2426C25.0718 80.1241 24.729 79.9969 24.2856 79.965Z" fill="#A71E3B"/>
</g>
<path d="M225.466 72.1824L225.21 72.613C225.276 72.6519 225.35 72.6751 225.426 72.6809L225.466 72.1824ZM194.841 54.0899L195.097 53.6593C195.034 53.622 194.963 53.5991 194.89 53.5922L194.841 54.0899ZM148.54 35.5099L148.916 35.1795C148.824 35.0747 148.693 35.0133 148.553 35.0102L148.54 35.5099ZM114.392 34.7482L114.405 34.2485C114.27 34.2455 114.14 34.297 114.043 34.3912L114.392 34.7482ZM89.938 58.5946L89.988 59.0917C90.1003 59.0799 90.2055 59.0306 90.2865 58.9516L89.938 58.5946ZM52.4904 73.6924L52.701 74.1449C52.7412 74.1261 52.7787 74.102 52.8126 74.0734L52.4904 73.6924ZM67.5658 60.9399L67.5158 60.4428C67.4156 60.4533 67.3207 60.4938 67.2437 60.559L67.5658 60.9399ZM162.149 51.0245L161.772 51.355C161.856 51.4505 161.973 51.5103 162.1 51.5222L162.149 51.0245ZM33.9996 82.9009C34.2501 82.7836 34.359 82.4859 34.2427 82.236C34.1264 81.9861 33.829 81.8786 33.5784 81.9959L33.9996 82.9009ZM37.3187 80.2447C37.0682 80.362 36.9593 80.6597 37.0756 80.9096C37.1919 81.1595 37.4893 81.267 37.7399 81.1497L37.3187 80.2447ZM45.2204 77.6473C45.471 77.53 45.5798 77.2323 45.4635 76.9824C45.3472 76.7325 45.0498 76.625 44.7993 76.7423L45.2204 77.6473ZM48.5396 74.9911C48.289 75.1084 48.1802 75.4061 48.2965 75.656C48.4128 75.9059 48.7102 76.0134 48.9607 75.8961L48.5396 74.9911ZM57.8377 69.8225C58.049 69.6438 58.0761 69.3284 57.8981 69.118C57.7202 68.9076 57.4047 68.8819 57.1934 69.0606L57.8377 69.8225ZM62.2185 64.8098C62.0073 64.9886 61.9802 65.304 62.1581 65.5144C62.3361 65.7248 62.6516 65.7504 62.8629 65.5717L62.2185 64.8098ZM75.0733 60.6553C75.3481 60.6265 75.5485 60.3805 75.5209 60.106C75.4932 59.8314 75.248 59.6322 74.9732 59.661L75.0733 60.6553ZM82.4305 58.8793C82.1557 58.9081 81.9553 59.154 81.9829 59.4285C82.0106 59.7031 82.2558 59.9023 82.5306 59.8735L82.4305 58.8793ZM94.3621 54.9772C94.5602 54.784 94.5648 54.4675 94.3723 54.2704C94.1798 54.0732 93.8632 54.07 93.6651 54.2632L94.3621 54.9772ZM97.7407 50.2888C97.5425 50.482 97.5379 50.7985 97.7304 50.9957C97.9229 51.1928 98.2395 51.196 98.4377 51.0028L97.7407 50.2888ZM106.589 43.054C106.787 42.8608 106.792 42.5444 106.599 42.3472C106.407 42.15 106.09 42.1468 105.892 42.34L106.589 43.054ZM109.967 38.3656C109.769 38.5588 109.765 38.8753 109.957 39.0725C110.15 39.2697 110.466 39.2729 110.664 39.0797L109.967 38.3656ZM120.07 35.3749C120.346 35.3811 120.576 35.1623 120.583 34.8863C120.59 34.6104 120.372 34.3816 120.096 34.3755L120.07 35.3749ZM125.788 34.5024C125.511 34.4962 125.282 34.715 125.274 34.991C125.267 35.267 125.485 35.4957 125.761 35.5019L125.788 34.5024ZM137.144 35.7557C137.42 35.7619 137.65 35.5431 137.657 35.2672C137.664 34.9912 137.446 34.7624 137.17 34.7563L137.144 35.7557ZM142.862 34.8832C142.586 34.8771 142.356 35.0958 142.348 35.3718C142.341 35.6478 142.559 35.8765 142.835 35.8827L142.862 34.8832ZM152.699 41.0119C152.881 41.219 153.197 41.239 153.405 41.0565C153.613 40.874 153.634 40.5582 153.453 40.351L152.699 41.0119ZM157.989 45.5226C157.807 45.3154 157.492 45.2954 157.283 45.4779C157.075 45.6604 157.054 45.9763 157.236 46.1834L157.989 45.5226ZM167.549 52.0331C167.824 52.0589 168.068 51.8569 168.095 51.5821C168.122 51.3072 167.921 51.0635 167.646 51.0378L167.549 52.0331ZM173.095 51.5486C172.82 51.5229 172.575 51.7248 172.548 51.9996C172.521 52.2745 172.722 52.5182 172.997 52.544L173.095 51.5486ZM183.895 53.5657C184.17 53.5915 184.414 53.3896 184.441 53.1148C184.468 52.8399 184.267 52.5962 183.992 52.5704L183.895 53.5657ZM189.441 53.0813C189.166 53.0555 188.921 53.2574 188.894 53.5323C188.867 53.8071 189.068 54.0509 189.343 54.0766L189.441 53.0813ZM199.689 57.5359C199.926 57.6761 200.233 57.597 200.375 57.3592C200.516 57.1214 200.438 56.8149 200.201 56.6747L199.689 57.5359ZM205.305 59.6901C205.068 59.5499 204.761 59.629 204.619 59.8668C204.478 60.1046 204.556 60.4111 204.793 60.5513L205.305 59.6901ZM215.002 66.5821C215.239 66.7224 215.546 66.6432 215.687 66.4054C215.829 66.1676 215.751 65.8612 215.513 65.721L215.002 66.5821ZM220.617 68.7364C220.38 68.5962 220.073 68.6753 219.932 68.9131C219.791 69.1509 219.868 69.4574 220.106 69.5976L220.617 68.7364ZM231.145 73.1106C231.42 73.1313 231.661 72.9249 231.683 72.6496C231.705 72.3743 231.499 72.1344 231.224 72.1137L231.145 73.1106ZM236.942 72.5434C236.667 72.5227 236.426 72.7291 236.404 73.0044C236.382 73.2797 236.588 73.5196 236.863 73.5403L236.942 72.5434ZM248.3 74.3997C248.575 74.4204 248.816 74.214 248.838 73.9388C248.86 73.6635 248.655 73.4235 248.379 73.4028L248.3 74.3997ZM254.098 73.8326C253.822 73.8119 253.582 74.0183 253.56 74.2935C253.538 74.5688 253.743 74.8088 254.019 74.8294L254.098 73.8326ZM30.2593 84.6521L33.9996 82.9009L33.5784 81.9959L29.8381 83.7471L30.2593 84.6521ZM37.7399 81.1497L45.2204 77.6473L44.7993 76.7423L37.3187 80.2447L37.7399 81.1497ZM48.9607 75.8961L52.701 74.1449L52.2799 73.2399L48.5396 74.9911L48.9607 75.8961ZM52.8126 74.0734L57.8377 69.8225L57.1934 69.0606L52.1683 73.3115L52.8126 74.0734ZM62.8629 65.5717L67.888 61.3209L67.2437 60.559L62.2185 64.8098L62.8629 65.5717ZM67.6159 61.4371L75.0733 60.6553L74.9732 59.661L67.5158 60.4428L67.6159 61.4371ZM82.5306 59.8735L89.988 59.0917L89.8879 58.0975L82.4305 58.8793L82.5306 59.8735ZM90.2865 58.9516L94.3621 54.9772L93.6651 54.2632L89.5895 58.2376L90.2865 58.9516ZM98.4377 51.0028L106.589 43.054L105.892 42.34L97.7407 50.2888L98.4377 51.0028ZM110.664 39.0797L114.74 35.1053L114.043 34.3912L109.967 38.3656L110.664 39.0797ZM114.378 35.248L120.07 35.3749L120.096 34.3755L114.405 34.2485L114.378 35.248ZM125.761 35.5019L137.144 35.7557L137.17 34.7563L125.788 34.5024L125.761 35.5019ZM142.835 35.8827L148.526 36.0096L148.553 35.0102L142.862 34.8832L142.835 35.8827ZM148.163 35.8403L152.699 41.0119L153.453 40.351L148.916 35.1795L148.163 35.8403ZM157.236 46.1834L161.772 51.355L162.526 50.6941L157.989 45.5226L157.236 46.1834ZM162.1 51.5222L167.549 52.0331L167.646 51.0378L162.198 50.5269L162.1 51.5222ZM172.997 52.544L183.895 53.5657L183.992 52.5704L173.095 51.5486L172.997 52.544ZM189.343 54.0766L194.792 54.5875L194.89 53.5922L189.441 53.0813L189.343 54.0766ZM194.585 54.5204L199.689 57.5359L200.201 56.6747L195.097 53.6593L194.585 54.5204ZM204.793 60.5513L215.002 66.5821L215.513 65.721L205.305 59.6901L204.793 60.5513ZM220.106 69.5976L225.21 72.613L225.722 71.7518L220.617 68.7364L220.106 69.5976ZM225.426 72.6809L231.145 73.1106L231.224 72.1137L225.505 71.684L225.426 72.6809ZM236.863 73.5403L248.3 74.3997L248.379 73.4028L236.942 72.5434L236.863 73.5403ZM254.019 74.8294L259.737 75.2592L259.816 74.2623L254.098 73.8326L254.019 74.8294Z" fill="#A71E3B"/>
<path d="M69.6875 60.3597C69.8141 61.4935 68.9667 62.5384 67.7588 62.665C66.5509 62.7916 65.4925 61.9465 65.3659 60.8127C65.2393 59.6789 66.0867 58.634 67.2946 58.5073C68.5025 58.3807 69.5609 59.2258 69.6875 60.3597Z" fill="white" stroke="#A71E3B"/>
<ellipse rx="1.33632" ry="1.29588" transform="matrix(0.99455 -0.104259 0.110953 0.993826 67.5265 60.5861)" fill="#A71E3B"/>
<path d="M164.001 50.0393C164.128 51.1731 163.28 52.2181 162.072 52.3447C160.864 52.4713 159.806 51.6262 159.679 50.4924C159.553 49.3585 160.4 48.3136 161.608 48.187C162.816 48.0604 163.874 48.9055 164.001 50.0393Z" fill="white" stroke="#A71E3B"/>
<ellipse rx="1.33632" ry="1.29588" transform="matrix(0.99455 -0.104265 0.110947 0.993826 161.84 50.2657)" fill="#A71E3B"/>
<path d="M227.718 70.7151C227.844 71.849 226.997 72.8939 225.789 73.0205C224.581 73.1471 223.523 72.302 223.396 71.1682C223.27 70.0343 224.117 68.9894 225.325 68.8628C226.533 68.7362 227.591 69.5813 227.718 70.7151Z" fill="white" stroke="#A71E3B"/>
<ellipse rx="1.33632" ry="1.29588" transform="matrix(0.994551 -0.104255 0.110958 0.993825 225.557 70.9415)" fill="#A71E3B"/>
<path d="M116.562 34.6009C116.688 35.7347 115.841 36.7796 114.633 36.9062C113.425 37.0329 112.366 36.1877 112.24 35.0539C112.113 33.9201 112.961 32.8752 114.169 32.7485C115.377 32.6219 116.435 33.467 116.562 34.6009Z" fill="white" stroke="#A71E3B"/>
<ellipse rx="1.33632" ry="1.29588" transform="matrix(0.99455 -0.104262 0.110951 0.993826 114.401 34.8273)" fill="#A71E3B"/>
<defs>
<clipPath id="clip0_3305_10903">
<rect width="6.38718" height="8.07312" fill="white" transform="matrix(0.999999 -0.00163752 0.00174185 0.999999 263.317 66.6611)"/>
</clipPath>
<clipPath id="clip1_3305_10903">
<rect width="8.08801" height="7.48134" fill="white" transform="matrix(0.999957 0.00927095 -0.00987288 0.999952 20.9346 77.9775)"/>
</clipPath>
</defs>
</svg>
