<svg width="302" height="191" viewBox="0 0 302 191" fill="none" xmlns="http://www.w3.org/2000/svg">
<path d="M8.15706 22.0332L10.2445 23.8233L8.15706 25.6133L10.2445 26.5083L12.6302 27.4034L13.8231 25.6133H18.8926L20.3837 27.4034L23.3658 29.4918L24.5586 32.4752L26.9443 36.0553H29.9264L29.0318 32.4752L31.7157 33.9669L33.2068 37.547L34.6978 39.0388L33.2068 40.5305L34.6978 42.9172L33.2068 46.4973V49.7791L31.7157 52.7625V55.746L34.6978 58.4311L36.4871 59.9228L38.5746 63.2045L40.3638 64.9946V63.8012L42.7495 62.3095L44.837 63.2045V66.188L42.7495 67.083L44.2406 71.2598L41.8549 72.4532L44.837 73.9449L44.2406 79.6134L46.6262 81.4035L49.9066 82.8952L52.8887 84.3869L54.6779 86.177V92.1438V96.619L53.7833 98.1107L57.0636 101.094L59.1511 103.481H52.8887L51.3976 105.569L49.0119 101.094L45.7316 104.376L40.3638 101.989L39.171 99.6024L36.4871 101.094L33.2068 104.376L31.7157 98.1107L27.2425 99.0057L23.9622 101.989L24.5586 105.569V109.746L27.2425 112.133L24.5586 116.011L25.4533 120.486L19.4891 121.978L17.998 124.962L17.1034 128.243L14.4195 130.332L12.0338 131.525L10.2445 133.315V136.597L10.841 141.37H6.666H2.49105L1 142.564L2.49105 145.846L3.98211 149.426L8.15706 152.111L13.8231 154.498L17.998 155.691V150.619H20.9801L22.4712 152.111L31.7157 147.039L36.4871 145.846L39.7674 147.039L43.3459 148.232L46.6262 152.707L44.837 156.884L48.4155 152.707L47.5209 145.846L44.837 144.652L44.2406 141.37L43.3459 133.315L45.7316 130.928L46.6262 136.597L49.9066 138.089L51.3976 136.597L49.9066 133.315L51.3976 132.718H52.8887L55.5726 129.735L57.0636 128.243L59.1511 130.332V128.243H61.5368L65.7117 124.962L68.992 119.591V114.221L65.7117 113.028L63.0278 109.746L59.1511 105.569L62.1332 102.884L65.1153 105.569L67.2028 108.553L68.992 110.641V113.028L71.6759 115.116L75.5527 112.133L77.0437 106.166L80.0258 104.376V99.6024V96.619H82.1133L85.99 95.4256L91.9543 94.5306L99.1113 93.0389L100.901 91.5471L102.392 93.0389L105.97 92.1438L108.952 93.0389H111.04H113.425L115.811 90.6521L119.091 93.0389L122.074 95.4256L124.161 94.5306L126.547 95.4256H131.318L129.231 99.6024L123.565 98.409H118.495L109.847 97.514H104.181L105.374 99.6024L107.461 100.796L109.847 99.6024L113.425 100.199L117.004 100.796L118.495 103.183L117.004 106.464H114.022L114.916 108.254L117.004 109.746H119.688L122.074 113.028H124.161L126.547 115.116L129.231 116.31L133.704 117.503L136.984 115.713L142.352 115.116L148.018 114.221L150.105 113.028L151.895 114.221L154.877 111.834L156.07 115.116L159.052 115.713L161.736 118.1L164.419 115.713L165.911 114.221V118.1L167.7 122.575H170.384V125.558H167.103H162.332L156.07 129.735L151.895 130.928L148.018 134.509L145.93 135.702L143.843 137.79L140.188 139.267L134.873 141.16L130.698 144.144L131.211 149.426L134.545 152.356L137.879 151.216L141.457 149.426L144.804 150.303L148.018 151.216L153.684 153.901L156.07 155.393L163.227 156.884L165.911 158.078L167.103 162.254L168.594 165.536L167.7 170.011L165.911 174.188L167.103 178.067L165.314 180.155L162.332 181.348L163.227 183.735L165.911 185.824L169.489 186.42L170.98 188.509L173.664 189.404L178.137 190H182.312L185.592 187.912L188.276 184.332L192.153 182.542L192.749 179.26L195.135 174.785L198.714 172.696L201.994 171.205H205.573L211.537 170.011H214.817L215.712 166.73L217.501 165.536L219.29 162.851H223.167V157.779L226.447 155.393H229.728H234.201L237.183 158.973L240.165 160.166L243.147 158.973L244.638 156.288L248.515 157.779L250.602 158.973L252.392 157.183L255.374 156.288L256.268 154.498L255.374 151.216V146.741L256.268 143.459L261.04 142.265H263.425L259.847 138.984H252.392H246.129L243.147 141.669L240.165 143.459L236.586 141.669V138.387L234.201 142.265L231.517 144.652L227.044 146.741L221.974 148.829L218.694 147.636L214.221 146.741L211.537 144.056L213.028 139.879L211.537 135.404L209.151 133.614L205.573 130.928L203.485 130.332L199.012 126.752L193.048 123.768L190.364 122.575L189.171 120.188L185.592 119.293L182.61 120.188L180.821 115.713V110.641L182.014 106.763H185.592L190.364 113.028L198.415 111.536H203.485L205.573 106.763H209.151L211.537 102.287L213.028 99.9007L215.414 101.094H218.694L221.974 96.619L228.535 92.1438L233.008 87.6687L239.27 85.5803L244.638 86.7736L252.392 80.8068H258.356H259.847H261.04L262.233 77.8234L268.793 73.3482L274.459 70.0664L276.547 71.8565L279.529 66.188L281.616 62.9062L285.195 63.2045H286.388L289.37 62.9062L290.264 62.0112H298.018L299.509 62.9062L301 60.2211" stroke="#283891" stroke-linejoin="round"/>
<path d="M70.2733 37.1609L70.7681 37.0885L70.7678 37.0866L70.2733 37.1609ZM67.6646 19.7768L67.6781 19.277C67.5302 19.273 67.3882 19.3347 67.2901 19.4455C67.1921 19.5563 67.1482 19.7048 67.1701 19.8511L67.6646 19.7768ZM118.7 21.1453L118.687 21.6451C118.756 21.647 118.825 21.6344 118.889 21.6082L118.7 21.1453ZM141.289 11.9286L141.287 11.4285C141.223 11.4288 141.16 11.4414 141.1 11.4656L141.289 11.9286ZM160.558 11.8586L160.819 11.4317C160.74 11.3835 160.649 11.3582 160.557 11.3586L160.558 11.8586ZM182.023 24.9553L181.762 25.3822C181.834 25.4258 181.915 25.4508 181.999 25.4548L182.023 24.9553ZM200.784 25.8477L200.76 26.3472C200.851 26.3515 200.941 26.331 201.021 26.2878L200.784 25.8477ZM212.513 19.5238L212.969 19.3185C212.912 19.192 212.805 19.0948 212.673 19.0503C212.542 19.0057 212.398 19.0179 212.275 19.0837L212.513 19.5238ZM224.836 46.902L224.38 47.1074C224.443 47.2459 224.565 47.3485 224.712 47.3863L224.836 46.902ZM76.604 77.0009C76.564 76.7277 76.3101 76.5386 76.0369 76.5786C75.7637 76.6187 75.5746 76.8726 75.6145 77.1458L76.604 77.0009ZM74.885 72.1568C74.925 72.43 75.1789 72.6191 75.4521 72.5791C75.7253 72.539 75.9144 72.2851 75.8745 72.0119L74.885 72.1568ZM74.4155 62.0337C74.3756 61.7605 74.1217 61.5715 73.8484 61.6115C73.5752 61.6515 73.3861 61.9054 73.4261 62.1787L74.4155 62.0337ZM72.6966 57.1896C72.7365 57.4628 72.9904 57.6519 73.2636 57.6119C73.5369 57.5719 73.726 57.3179 73.686 57.0447L72.6966 57.1896ZM72.2271 47.0666C72.1871 46.7933 71.9332 46.6043 71.66 46.6443C71.3868 46.6843 71.1976 46.9383 71.2376 47.2115L72.2271 47.0666ZM70.5081 42.2224C70.5481 42.4957 70.8019 42.6847 71.0752 42.6447C71.3484 42.6047 71.5375 42.3508 71.4976 42.0775L70.5081 42.2224ZM69.8982 31.2919C69.8572 31.0188 69.6026 30.8307 69.3296 30.8718C69.0565 30.9128 68.8683 31.1675 68.9093 31.4405L69.8982 31.2919ZM68.0397 25.6458C68.0807 25.9189 68.3353 26.107 68.6084 26.066C68.8814 26.0249 69.0696 25.7703 69.0286 25.4972L68.0397 25.6458ZM73.3217 20.4287C73.5977 20.4361 73.8275 20.2183 73.835 19.9423C73.8425 19.6662 73.6247 19.4364 73.3487 19.429L73.3217 20.4287ZM79.0193 19.5811C78.7433 19.5737 78.5135 19.7915 78.506 20.0675C78.4985 20.3436 78.7162 20.5733 78.9923 20.5807L79.0193 19.5811ZM90.3335 20.8849C90.6095 20.8923 90.8394 20.6745 90.8468 20.3984C90.8543 20.1224 90.6366 19.8926 90.3605 19.8852L90.3335 20.8849ZM96.0311 20.0372C95.7551 20.0298 95.5253 20.2476 95.5178 20.5237C95.5104 20.7997 95.7281 21.0295 96.0041 21.0369L96.0311 20.0372ZM107.345 21.341C107.621 21.3484 107.851 21.1306 107.859 20.8546C107.866 20.5785 107.648 20.3488 107.372 20.3414L107.345 21.341ZM113.043 20.4934C112.767 20.486 112.537 20.7038 112.53 20.9798C112.522 21.2559 112.74 21.4857 113.016 21.4931L113.043 20.4934ZM122.654 20.0721C122.909 19.9678 123.032 19.6759 122.928 19.4203C122.824 19.1646 122.532 19.0419 122.276 19.1462L122.654 20.0721ZM126.041 17.6101C125.785 17.7144 125.662 18.0063 125.767 18.262C125.871 18.5176 126.163 18.6403 126.418 18.536L126.041 17.6101ZM133.948 15.4638C134.204 15.3594 134.327 15.0676 134.222 14.8119C134.118 14.5562 133.826 14.4335 133.571 14.5378L133.948 15.4638ZM137.335 13.0017C137.08 13.1061 136.957 13.3979 137.061 13.6536C137.165 13.9093 137.457 14.032 137.713 13.9276L137.335 13.0017ZM147.714 12.4052C147.99 12.4042 148.213 12.1796 148.212 11.9034C148.211 11.6273 147.986 11.4042 147.71 11.4052L147.714 12.4052ZM154.133 11.3819C153.857 11.3829 153.634 11.6076 153.635 11.8837C153.636 12.1599 153.861 12.3829 154.137 12.3819L154.133 11.3819ZM163.875 14.4682C164.111 14.612 164.419 14.5375 164.562 14.3018C164.706 14.066 164.632 13.7583 164.396 13.6145L163.875 14.4682ZM167.974 15.7973C167.738 15.6535 167.43 15.728 167.286 15.9637C167.142 16.1995 167.217 16.5072 167.453 16.651L167.974 15.7973ZM174.607 21.0166C174.843 21.1604 175.151 21.0859 175.295 20.8501C175.439 20.6144 175.364 20.3067 175.128 20.1629L174.607 21.0166ZM178.706 22.3457C178.47 22.2018 178.162 22.2764 178.019 22.5121C177.875 22.7479 177.949 23.0556 178.185 23.1994L178.706 22.3457ZM188.253 25.7522C188.528 25.7653 188.763 25.5524 188.776 25.2765C188.789 25.0007 188.576 24.7665 188.3 24.7533L188.253 25.7522ZM194.554 25.0508C194.278 25.0377 194.044 25.2507 194.031 25.5265C194.018 25.8023 194.231 26.0366 194.506 26.0497L194.554 25.0508ZM204.931 24.1799C205.174 24.0488 205.265 23.7455 205.134 23.5025C205.003 23.2594 204.699 23.1686 204.456 23.2997L204.931 24.1799ZM208.366 21.1917C208.123 21.3228 208.032 21.6261 208.163 21.8691C208.294 22.1122 208.597 22.203 208.84 22.0719L208.366 21.1917ZM214.111 24.2922C214.224 24.544 214.52 24.6562 214.772 24.5428C215.024 24.4294 215.136 24.1333 215.022 23.8815L214.111 24.2922ZM217.076 28.4446C216.963 28.1928 216.667 28.0806 216.415 28.194C216.163 28.3074 216.051 28.6035 216.165 28.8552L217.076 28.4446ZM220.272 37.9813C220.386 38.2331 220.682 38.3453 220.934 38.2319C221.185 38.1185 221.298 37.8224 221.184 37.5706L220.272 37.9813ZM223.238 42.1337C223.125 41.8819 222.829 41.7697 222.577 41.8831C222.325 41.9965 222.213 42.2925 222.326 42.5443L223.238 42.1337ZM229.54 48.6262C229.807 48.6949 230.08 48.5337 230.149 48.2663C230.217 47.9988 230.056 47.7263 229.789 47.6576L229.54 48.6262ZM234.617 48.8975C234.35 48.8288 234.077 48.99 234.008 49.2574C233.94 49.5249 234.101 49.7974 234.368 49.8661L234.617 48.8975ZM244.025 52.3458C244.292 52.4145 244.565 52.2534 244.633 51.9859C244.702 51.7184 244.541 51.4459 244.273 51.3772L244.025 52.3458ZM249.102 52.6171C248.834 52.5484 248.562 52.7096 248.493 52.9771C248.424 53.2445 248.585 53.517 248.853 53.5857L249.102 52.6171ZM258.509 56.0655C258.777 56.1342 259.049 55.973 259.118 55.7055C259.187 55.4381 259.026 55.1656 258.758 55.0969L258.509 56.0655ZM263.586 56.3368C263.319 56.2681 263.046 56.4292 262.978 56.6967C262.909 56.9642 263.07 57.2367 263.337 57.3054L263.586 56.3368ZM77.3335 81.99L76.604 77.0009L75.6145 77.1458L76.344 82.1349L77.3335 81.99ZM75.8745 72.0119L74.4155 62.0337L73.4261 62.1787L74.885 72.1568L75.8745 72.0119ZM73.686 57.0447L72.2271 47.0666L71.2376 47.2115L72.6966 57.1896L73.686 57.0447ZM71.4976 42.0775L70.7681 37.0885L69.7786 37.2334L70.5081 42.2224L71.4976 42.0775ZM70.7678 37.0866L69.8982 31.2919L68.9093 31.4405L69.7789 37.2352L70.7678 37.0866ZM69.0286 25.4972L68.159 19.7025L67.1701 19.8511L68.0397 25.6458L69.0286 25.4972ZM67.651 20.2766L73.3217 20.4287L73.3487 19.429L67.6781 19.277L67.651 20.2766ZM78.9923 20.5807L90.3335 20.8849L90.3605 19.8852L79.0193 19.5811L78.9923 20.5807ZM96.0041 21.0369L107.345 21.341L107.372 20.3414L96.0311 20.0372L96.0041 21.0369ZM113.016 21.4931L118.687 21.6451L118.714 20.6455L113.043 20.4934L113.016 21.4931ZM118.889 21.6082L122.654 20.0721L122.276 19.1462L118.511 20.6823L118.889 21.6082ZM126.418 18.536L133.948 15.4638L133.571 14.5378L126.041 17.6101L126.418 18.536ZM137.713 13.9276L141.478 12.3915L141.1 11.4656L137.335 13.0017L137.713 13.9276ZM141.291 12.4286L147.714 12.4052L147.71 11.4052L141.287 11.4285L141.291 12.4286ZM154.137 12.3819L160.56 12.3586L160.557 11.3586L154.133 11.3819L154.137 12.3819ZM160.298 12.2854L163.875 14.4682L164.396 13.6145L160.819 11.4317L160.298 12.2854ZM167.453 16.651L174.607 21.0166L175.128 20.1629L167.974 15.7973L167.453 16.651ZM178.185 23.1994L181.762 25.3822L182.283 24.5285L178.706 22.3457L178.185 23.1994ZM181.999 25.4548L188.253 25.7522L188.3 24.7533L182.047 24.4559L181.999 25.4548ZM194.506 26.0497L200.76 26.3472L200.808 25.3483L194.554 25.0508L194.506 26.0497ZM201.021 26.2878L204.931 24.1799L204.456 23.2997L200.547 25.4076L201.021 26.2878ZM208.84 22.0719L212.75 19.964L212.275 19.0837L208.366 21.1917L208.84 22.0719ZM212.057 19.7292L214.111 24.2922L215.022 23.8815L212.969 19.3185L212.057 19.7292ZM216.165 28.8552L220.272 37.9813L221.184 37.5706L217.076 28.4446L216.165 28.8552ZM222.326 42.5443L224.38 47.1074L225.292 46.6967L223.238 42.1337L222.326 42.5443ZM224.712 47.3863L229.54 48.6262L229.789 47.6576L224.961 46.4177L224.712 47.3863ZM234.368 49.8661L244.025 52.3458L244.273 51.3772L234.617 48.8975L234.368 49.8661ZM248.853 53.5857L258.509 56.0655L258.758 55.0969L249.102 52.6171L248.853 53.5857ZM263.337 57.3054L268.166 58.5452L268.414 57.5766L263.586 56.3368L263.337 57.3054Z" fill="#A71E3B"/>
<path d="M75.2984 92.2144C73.9016 92.5178 72.9619 93.0849 72.9619 93.7345C72.9619 94.7038 75.054 95.4895 77.6348 95.4895C80.2156 95.4895 82.3077 94.7038 82.3077 93.7345C82.3077 93.0849 81.368 92.5178 79.9713 92.2144" stroke="#A71E3B" stroke-linecap="round" stroke-linejoin="round"/>
<g clip-path="url(#clip0_3305_10815)">
<path d="M76.9823 92.967C75.9828 91.7629 73.7598 88.8446 73.7598 87.2055C73.7598 85.2167 75.4057 83.6045 77.4361 83.6045C79.4658 83.6045 81.1125 85.2167 81.1125 87.2055C81.1125 88.8446 78.8722 91.7629 77.8899 92.967C77.6544 93.2539 77.2179 93.2539 76.9823 92.967ZM77.4361 88.4058C78.1121 88.4058 78.6616 87.8675 78.6616 87.2055C78.6616 86.5434 78.1121 86.0051 77.4361 86.0051C76.7602 86.0051 76.2107 86.5434 76.2107 87.2055C76.2107 87.8675 76.7602 88.4058 77.4361 88.4058Z" fill="#A71E3B"/>
</g>
<path d="M71.0606 20.63C71.0606 21.9049 70.0286 22.9373 68.7569 22.9373C67.4851 22.9373 66.4531 21.9049 66.4531 20.63C66.4531 19.3552 67.4851 18.3228 68.7569 18.3228C70.0286 18.3228 71.0606 19.3552 71.0606 20.63Z" fill="white" stroke="#A71E3B"/>
<ellipse cx="68.7573" cy="20.6282" rx="1.40187" ry="1.40363" fill="#A71E3B"/>
<path d="M143.49 12.2091C143.49 13.484 142.458 14.5164 141.187 14.5164C139.915 14.5164 138.883 13.484 138.883 12.2091C138.883 10.9343 139.915 9.90186 141.187 9.90186C142.458 9.90186 143.49 10.9343 143.49 12.2091Z" fill="white" stroke="#A71E3B"/>
<ellipse cx="141.187" cy="12.2093" rx="1.40187" ry="1.40363" fill="#A71E3B"/>
<path d="M214.518 20.1637C214.518 21.4385 213.486 22.4709 212.214 22.4709C210.942 22.4709 209.91 21.4385 209.91 20.1637C209.91 18.8888 210.942 17.8564 212.214 17.8564C213.486 17.8564 214.518 18.8888 214.518 20.1637Z" fill="white" stroke="#A71E3B"/>
<ellipse cx="212.214" cy="20.1639" rx="1.40187" ry="1.40363" fill="#A71E3B"/>
<path d="M271.56 57.5923C270.163 57.8957 269.224 58.4629 269.224 59.1125C269.224 60.0817 271.316 60.8674 273.897 60.8674C276.477 60.8674 278.569 60.0817 278.569 59.1125C278.569 58.4629 277.63 57.8957 276.233 57.5923" stroke="#A71E3B" stroke-linecap="round" stroke-linejoin="round"/>
<g clip-path="url(#clip1_3305_10815)">
<path d="M280.71 50.5746C280.605 50.5746 280.496 50.5967 280.392 50.6441C279.641 50.9873 279.084 51.1037 278.619 51.1037C277.633 51.1037 277.059 50.5797 275.924 50.5795C275.352 50.5795 274.641 50.7111 273.665 51.1068V51.1006C273.665 50.8086 273.422 50.5742 273.12 50.5742C272.818 50.5742 272.575 50.8086 272.575 51.1006L272.574 58.7328C272.574 58.8767 272.698 58.996 272.847 58.996H273.393C273.542 58.996 273.665 58.8775 273.665 58.7328V56.8905C274.547 56.4981 275.245 56.3671 275.851 56.3671C277.062 56.3671 277.906 56.8899 279.117 56.8899C279.642 56.8899 280.236 56.7917 280.959 56.5101C281.166 56.4283 281.298 56.2392 281.298 56.0368V51.0799C281.298 50.7718 281.022 50.5746 280.71 50.5746ZM280.207 52.9066C279.662 53.1376 279.222 53.2453 278.844 53.2766V54.5959C279.278 54.5716 279.723 54.4816 280.207 54.3107V55.6552C279.818 55.7776 279.459 55.8375 279.116 55.8375C279.024 55.8375 278.934 55.8305 278.844 55.8228V54.5959C278.769 54.6002 278.693 54.6067 278.618 54.6067C278.178 54.6067 277.811 54.5319 277.481 54.4409V55.5414C277.076 55.4418 276.627 55.3538 276.119 55.3279V54.0794C276.054 54.0893 275.991 54.0827 275.923 54.0827C275.587 54.0827 275.183 54.1551 274.756 54.2768V55.4134C274.401 55.499 274.038 55.6042 273.665 55.7457V54.6979L274.087 54.527C274.326 54.4314 274.544 54.3558 274.756 54.2768V52.933C274.43 53.0169 274.076 53.1271 273.665 53.2932V52.2487L274.087 52.0778C274.326 51.9809 274.544 51.9061 274.756 51.8411V52.933C275.205 52.8186 275.592 52.7662 275.922 52.7663C275.992 52.7663 276.053 52.7737 276.119 52.7773V51.6439C276.435 51.6697 276.705 51.7511 277.025 51.8544C277.17 51.9005 277.323 51.9469 277.481 51.9908V53.0776C277.836 53.1901 278.188 53.2907 278.618 53.2907C278.69 53.2907 278.768 53.2829 278.844 53.2766V52.1457C279.278 52.1214 279.723 52.0314 280.207 51.8605V52.9066ZM276.119 52.7767V54.0933C276.436 54.1191 276.704 54.2006 277.025 54.3038C277.17 54.3508 277.323 54.3964 277.481 54.4409V53.0776C277.074 52.9476 276.657 52.808 276.119 52.7767Z" fill="#A71E3B"/>
</g>
<defs>
<clipPath id="clip0_3305_10815">
<rect width="7.35275" height="9.60256" fill="white" transform="translate(73.7598 83.6045)"/>
</clipPath>
<clipPath id="clip1_3305_10815">
<rect width="9.81308" height="8.42175" fill="white" transform="translate(272.029 50.5742)"/>
</clipPath>
</defs>
</svg>
