<svg width="20" height="20" viewBox="0 0 20 20" fill="none" xmlns="http://www.w3.org/2000/svg">
<circle cx="9.99973" cy="10" r="7.81693" transform="rotate(19.7673 9.99973 10)" fill="#202645"/>
<path d="M11.3543 13.7882H10.5585V11.4172C11.0473 11.3065 11.5021 11.0316 11.8431 10.6337C12.3017 10.1005 12.5328 9.41132 12.4874 8.68525L12.2752 5.26821C12.26 5.0549 12.097 4.88672 11.8962 4.88672H8.22036C8.0233 4.88672 7.85656 5.0508 7.84141 5.26821L7.61403 8.67704C7.56477 9.40311 7.79214 10.0964 8.25068 10.6337C8.59552 11.0357 9.05027 11.3106 9.53912 11.4213V13.7923H8.73195C8.36815 13.7923 8.07636 14.1123 8.07636 14.502V14.5225C8.07636 14.5963 8.1332 14.6579 8.20141 14.6579H11.8886C11.9568 14.6579 12.0137 14.5963 12.0137 14.5225V14.502C12.0099 14.1041 11.7181 13.7882 11.3543 13.7882ZM11.54 5.70714L11.6423 7.34797L8.4591 7.33566L8.569 5.70714H11.54Z" fill="white"/>
</svg>
