<svg width="39" height="39" viewBox="0 0 39 39" fill="none" xmlns="http://www.w3.org/2000/svg">
<circle cx="19.0513" cy="19.0511" r="14.8921" transform="rotate(19.7673 19.0513 19.0511)" fill="#202645"/>
<g clip-path="url(#clip0_4575_9531)">
<path d="M24.4392 12.3717C24.2804 12.3717 24.1153 12.4065 23.9573 12.481C22.8169 13.0206 21.9714 13.2037 21.2659 13.2037C19.7692 13.2037 18.8994 12.3796 17.1757 12.3794C16.3081 12.3794 15.2299 12.5864 13.7485 13.2086V13.1988C13.7485 12.7397 13.3801 12.3711 12.9211 12.3711C12.4622 12.3711 12.0938 12.7397 12.0938 13.1988L12.0928 25.2004C12.0928 25.4267 12.2802 25.6142 12.5064 25.6142H13.3348C13.561 25.6142 13.7485 25.428 13.7485 25.2004V22.3034C15.0862 21.6863 16.1454 21.4804 17.0656 21.4804C18.9036 21.4804 20.1836 22.3024 22.0219 22.3024C22.8184 22.3024 23.7197 22.148 24.8167 21.7052C25.1321 21.5766 25.3312 21.2792 25.3312 20.961V13.1662C25.3312 12.6817 24.9124 12.3717 24.4392 12.3717ZM23.6765 16.0388C22.8495 16.402 22.1819 16.5714 21.6082 16.6205V18.6952C22.2659 18.657 22.942 18.5154 23.6765 18.2467V20.3609C23.0863 20.5534 22.5407 20.6475 22.0211 20.6475C21.8802 20.6475 21.7442 20.6365 21.6082 20.6245V18.6952C21.4935 18.7019 21.3783 18.7121 21.2646 18.7121C20.597 18.7121 20.0404 18.5945 19.5398 18.4514V20.182C18.9243 20.0254 18.2427 19.8869 17.4715 19.8463V17.883C17.3733 17.8985 17.2776 17.8882 17.1742 17.8882C16.6648 17.8882 16.0521 18.002 15.4032 18.1934V19.9807C14.8654 20.1152 14.3147 20.2808 13.7485 20.5032V18.8556L14.3889 18.5868C14.7516 18.4366 15.0826 18.3176 15.4032 18.1934V16.0802C14.9093 16.2121 14.3716 16.3854 13.7485 16.6467V15.0042L14.3889 14.7355C14.7516 14.5831 15.0826 14.4654 15.4032 14.3633V16.081C16.0855 15.9011 16.6723 15.8179 17.1737 15.8182C17.2789 15.8182 17.3721 15.8297 17.4715 15.8355V14.0531C17.9524 14.0937 18.3609 14.2218 18.8469 14.3842C19.0667 14.4566 19.2994 14.5296 19.5398 14.5986V16.3076C20.0774 16.4845 20.6115 16.6428 21.2646 16.6428C21.3734 16.6428 21.4916 16.6305 21.6082 16.6206V14.8423C22.2659 14.8041 22.942 14.6624 23.6765 14.3938V16.0388ZM17.4715 15.8345V17.9048C17.9526 17.9454 18.3601 18.0735 18.8477 18.2358C19.0667 18.3098 19.2994 18.3822 19.5398 18.4521V16.3078C18.9219 16.1035 18.2885 15.8836 17.4715 15.8345Z" fill="white"/>
</g>
<defs>
<clipPath id="clip0_4575_9531">
<rect width="14.8921" height="13.2431" fill="white" transform="translate(11.2666 12.3711)"/>
</clipPath>
</defs>
</svg>
