<svg width="20" height="20" viewBox="0 0 20 20" fill="none" xmlns="http://www.w3.org/2000/svg">
<circle cx="9.99973" cy="10" r="7.81693" transform="rotate(19.7673 9.99973 10)" fill="#202645"/>
<path d="M13.5158 13.0368H13.4757V6.96324H13.5158C13.7837 6.96324 13.998 6.74585 13.998 6.48164C13.998 6.21408 13.7804 6.00004 13.5158 6.00004H6.48026C6.21571 5.99669 5.99805 6.21408 5.99805 6.4783C5.99805 6.73248 6.19227 6.93983 6.44007 6.9599V13.0368H6.48026C6.21236 13.0368 5.99805 13.2542 5.99805 13.5184C5.99805 13.786 6.21571 14 6.48026 14H9.23287V13.0334H10.7532V14H13.5125C13.7804 14 13.9947 13.7826 13.9947 13.5184C13.998 13.2508 13.7837 13.0368 13.5158 13.0368ZM9.50412 7.67562C9.50412 7.592 9.57444 7.52177 9.65816 7.52177H10.3413C10.425 7.52177 10.4953 7.592 10.4953 7.67562V8.35789C10.4953 8.4415 10.425 8.51173 10.3413 8.51173H9.65816C9.57444 8.51173 9.50412 8.4415 9.50412 8.35789V7.67562ZM9.50412 9.17059C9.50412 9.08698 9.57444 9.01675 9.65816 9.01675H10.3413C10.425 9.01675 10.4953 9.08698 10.4953 9.17059V9.85286C10.4953 9.93647 10.425 10.0067 10.3413 10.0067H9.65816C9.57444 10.0067 9.50412 9.93647 9.50412 9.85286V9.17059ZM7.48821 7.67562C7.48821 7.592 7.55853 7.52177 7.64225 7.52177H8.32538C8.4091 7.52177 8.47942 7.592 8.47942 7.67562V8.35789C8.47942 8.4415 8.4091 8.51173 8.32538 8.51173H7.64225C7.55853 8.51173 7.48821 8.4415 7.48821 8.35789V7.67562ZM8.32203 10.0034H7.64225C7.55853 10.0034 7.48821 9.93313 7.48821 9.84952V9.17059C7.48821 9.08698 7.55853 9.01675 7.64225 9.01675H8.32538C8.4091 9.01675 8.47942 9.08698 8.47942 9.17059V9.85286C8.47607 9.93647 8.4091 10.0034 8.32203 10.0034ZM11.4865 11.7258C11.4865 11.9064 11.3425 12.0502 11.1617 12.0502H8.80089C8.62006 12.0502 8.47607 11.9064 8.47607 11.7258C8.47607 11.0569 9.31994 10.5184 9.98633 10.5184H10.0064C10.6762 10.5184 11.4865 11.0602 11.4865 11.7258ZM12.5079 9.84952C12.5079 9.93313 12.4376 10.0034 12.3538 10.0034H11.6707C11.587 10.0034 11.5167 9.93313 11.5167 9.84952V9.17059C11.5167 9.08698 11.587 9.01675 11.6707 9.01675H12.3538C12.4376 9.01675 12.5079 9.08698 12.5079 9.17059V9.84952ZM12.5079 8.35454C12.5079 8.43815 12.4376 8.50839 12.3538 8.50839H11.6707C11.587 8.50839 11.5167 8.43815 11.5167 8.35454V7.67562C11.5167 7.592 11.587 7.52177 11.6707 7.52177H12.3538C12.4376 7.52177 12.5079 7.592 12.5079 7.67562V8.35454Z" fill="white"/>
</svg>
