<svg width="20" height="20" viewBox="0 0 20 20" fill="none" xmlns="http://www.w3.org/2000/svg">
<path d="M17.356 12.6437C15.896 16.7065 11.4188 18.8164 7.35604 17.3563C3.29326 15.8962 1.18335 11.4191 2.64342 7.35631C4.10349 3.29353 8.58064 1.18362 12.6434 2.64369C16.7062 4.10376 18.8161 8.58091 17.356 12.6437Z" fill="#202645"/>
<path d="M9.6582 8.24069C9.71831 8.48502 9.72025 8.74097 9.66789 8.98724C9.6136 9.21799 9.50307 9.46619 9.34795 9.66397C9.06678 9.98392 8.71581 10.1875 8.29115 10.2845V14.5097C8.29115 14.7153 8.22716 14.9131 8.08173 15.0585C7.9363 15.2039 7.73851 15.2854 7.51552 15.2854C7.32743 15.2854 7.13003 15.2039 6.98441 15.0585C6.83898 14.9131 6.73989 14.7153 6.73989 14.5097V10.2845C6.34936 10.2069 5.98094 9.98974 5.71606 9.66979C5.5588 9.47201 5.44903 9.24126 5.39524 8.99305C5.34145 8.74485 5.34508 8.48889 5.40587 8.24263L5.9916 5.5987C6.00808 5.52401 6.05171 5.45806 6.11396 5.41352C6.17601 5.36896 6.2526 5.34896 6.32861 5.35734C6.40482 5.36563 6.4754 5.40194 6.52659 5.45926C6.57778 5.51656 6.60571 5.59075 6.60532 5.66754V8.45981H6.94214L7.27352 5.58823C7.28128 5.52473 7.31192 5.46628 7.36039 5.42388C7.40693 5.38149 7.46898 5.35806 7.51552 5.35806C7.59696 5.35806 7.65901 5.38149 7.70555 5.42388C7.75403 5.46628 7.7676 5.52473 7.79281 5.58823L8.12439 8.45981H8.44628V5.66754C8.44628 5.59133 8.49087 5.51761 8.52384 5.46039C8.59171 5.40317 8.66151 5.36648 8.73714 5.35734C8.81276 5.34902 8.87287 5.36929 8.95237 5.41422C9.01442 5.45915 9.05708 5.52554 9.07454 5.60064L9.6582 8.24069ZM14.0483 14.5097C14.0483 14.7153 13.9668 14.9131 13.8214 15.0585C13.676 15.2039 13.4782 15.2854 13.2726 15.2854C13.0671 15.2854 12.8693 15.2039 12.7239 15.0585C12.5784 14.9131 12.497 14.7153 12.497 14.5097V12.1828H12.1712C12.0084 12.1828 11.8455 12.1499 11.6942 12.0878C11.5449 12.0238 11.4072 11.9327 11.2909 11.8163C11.1765 11.7 11.0854 11.5623 11.0059 11.4111C10.9613 11.2598 10.9302 11.097 10.9302 10.9341L10.9283 8.7274C10.9457 8.01188 11.161 7.31188 11.5624 6.72007C11.9638 6.12729 12.5319 5.66851 13.197 5.40264C13.2746 5.36506 13.3929 5.35108 13.4937 5.36192C13.5945 5.37277 13.6915 5.40809 13.7749 5.46483C13.8582 5.52157 13.928 5.59793 13.9746 5.68751C14.0231 5.7769 14.0308 5.87657 14.0483 5.97779V14.5097Z" fill="white"/>
</svg>
