<svg width="39" height="39" viewBox="0 0 39 39" fill="none" xmlns="http://www.w3.org/2000/svg">
<circle cx="19.3598" cy="19.3597" r="14.1333" transform="rotate(19.7673 19.3598 19.3597)" fill="#202645" stroke="#202645" stroke-width="2"/>
<g clip-path="url(#clip0_4575_9535)">
<path d="M18.4014 26.2565C16.8243 24.3589 13.3164 19.7598 13.3164 17.1765C13.3164 14.0422 15.9136 11.5015 19.1175 11.5015C22.3202 11.5015 24.9186 14.0422 24.9186 17.1765C24.9186 19.7598 21.3836 24.3589 19.8336 26.2565C19.462 26.7087 18.7731 26.7087 18.4014 26.2565ZM19.1175 19.0681C20.1841 19.0681 21.0512 18.2198 21.0512 17.1765C21.0512 16.1331 20.1841 15.2848 19.1175 15.2848C18.051 15.2848 17.1838 16.1331 17.1838 17.1765C17.1838 18.2198 18.051 19.0681 19.1175 19.0681Z" fill="white"/>
</g>
<defs>
<clipPath id="clip0_4575_9535">
<rect width="11.6022" height="15.1333" fill="white" transform="translate(13.3164 11.5015)"/>
</clipPath>
</defs>
</svg>
