<svg width="20" height="20" viewBox="0 0 20 20" fill="none" xmlns="http://www.w3.org/2000/svg">
<circle cx="9.99973" cy="10" r="7.81693" transform="rotate(19.7673 9.99973 10)" fill="#202645"/>
<path d="M14.998 10.0188C14.998 9.57131 14.6809 9.1949 14.2551 9.11125C14.1383 8.57173 13.9254 8.06566 13.6291 7.62233C13.7042 7.4885 13.746 7.33793 13.746 7.17482C13.746 6.66458 13.3328 6.25052 12.8236 6.25052C12.6566 6.25052 12.5022 6.29235 12.3687 6.37181C11.9346 6.08741 11.4421 5.87829 10.9204 5.76537C10.8453 5.33041 10.4655 5 10.0106 5C9.55564 5 9.17584 5.33041 9.10072 5.76537C8.57067 5.87829 8.07818 6.09159 7.63578 6.38018C7.49805 6.29653 7.33528 6.25052 7.16416 6.25052C6.65498 6.25052 6.24179 6.66458 6.24179 7.17482C6.24179 7.3463 6.2877 7.50941 6.37117 7.64743C6.08736 8.08657 5.87451 8.58009 5.76182 9.10707C5.33194 9.18235 4.99805 9.56294 4.99805 10.0188C4.99805 10.4747 5.33194 10.8553 5.76599 10.9306C5.87868 11.4617 6.09154 11.9594 6.37952 12.4028C6.30856 12.5324 6.26683 12.683 6.26683 12.8461C6.26683 13.3354 6.64663 13.7369 7.12659 13.7704L7.29354 13.4149C7.46466 13.5529 7.6483 13.6784 7.84028 13.7913L7.58569 14.335C7.44379 14.6445 7.66917 15 8.00723 15H12.0139C12.3561 15 12.5773 14.6445 12.4354 14.335L12.1809 13.7871C12.377 13.6742 12.5607 13.5445 12.7359 13.4023L12.9029 13.7662C13.3662 13.7202 13.7293 13.3229 13.7293 12.8461C13.7293 12.6913 13.6917 12.5491 13.6249 12.4195C13.9213 11.972 14.1383 11.4701 14.251 10.9264C14.6809 10.8427 14.998 10.4705 14.998 10.0188ZM11.6717 12.6913L10.7117 10.6211C10.8495 10.458 10.9329 10.2488 10.9329 10.0188C10.9329 9.50857 10.5197 9.09452 10.0106 9.09452C9.50139 9.09452 9.0882 9.50857 9.0882 10.0188C9.0882 10.2488 9.17167 10.458 9.3094 10.6211L8.34947 12.6913C8.15748 12.5701 7.98219 12.432 7.81942 12.2773L7.8528 12.202C7.77351 12.1184 7.67751 12.0514 7.569 12.0013C7.22259 11.5705 6.98469 11.0477 6.90122 10.4747H8.49137C8.44963 10.3283 8.42459 10.1777 8.42459 10.0188C8.42459 9.85989 8.44963 9.70933 8.49137 9.56294H6.90122C6.97634 9.03597 7.18502 8.555 7.48553 8.14513L8.60823 9.27018C8.75431 8.99833 8.97551 8.77248 9.24679 8.62192L8.12826 7.50105C8.53728 7.19573 9.02142 6.98243 9.5473 6.90715V8.50063C9.69337 8.45462 9.8478 8.42953 10.0106 8.42953C10.165 8.42953 10.3152 8.45044 10.4571 8.49226V6.90297C10.983 6.97825 11.4672 7.18319 11.8762 7.4885L10.7535 8.61355C11.0289 8.75993 11.2543 8.9816 11.4004 9.25345L12.5231 8.1284C12.8319 8.54245 13.0448 9.03179 13.1199 9.56294H11.5298C11.5715 9.70933 11.5965 9.85989 11.5965 10.0188C11.5965 10.1777 11.5715 10.3283 11.5298 10.4747H13.1199C13.0364 11.0435 12.8027 11.5621 12.4605 11.9887C12.352 12.0347 12.2518 12.0974 12.1683 12.1769L12.2101 12.2647C12.0473 12.4279 11.8678 12.5701 11.6717 12.6913Z" fill="white"/>
</svg>
