<svg width="20" height="20" viewBox="0 0 20 20" fill="none" xmlns="http://www.w3.org/2000/svg">
<circle cx="9.99973" cy="10" r="7.81693" transform="rotate(19.7673 9.99973 10)" fill="#202645"/>
<path d="M10.3554 8.6525C10.8904 8.6525 11.3241 8.21972 11.3241 7.68587C11.3241 7.15201 10.8904 6.71924 10.3554 6.71924C9.82042 6.71924 9.38672 7.15201 9.38672 7.68587C9.38672 8.21972 9.82042 8.6525 10.3554 8.6525Z" fill="white"/>
<path d="M7.94722 9.07096C8.48222 9.07096 8.91592 8.63818 8.91592 8.10433C8.91592 7.57047 8.48222 7.1377 7.94722 7.1377C7.41222 7.1377 6.97852 7.57047 6.97852 8.10433C6.97852 8.63818 7.41222 9.07096 7.94722 9.07096Z" fill="white"/>
<path d="M7.53316 11.4718C8.06815 11.4718 8.50186 11.0391 8.50186 10.5052C8.50186 9.97135 8.06815 9.53857 7.53316 9.53857C6.99816 9.53857 6.56445 9.97135 6.56445 10.5052C6.56445 11.0391 6.99816 11.4718 7.53316 11.4718Z" fill="white"/>
<path d="M9.92671 11.0573C10.4617 11.0573 10.8954 10.6245 10.8954 10.0907C10.8954 9.5568 10.4617 9.12402 9.92671 9.12402C9.39171 9.12402 8.95801 9.5568 8.95801 10.0907C8.95801 10.6245 9.39171 11.0573 9.92671 11.0573Z" fill="white"/>
<path d="M12.3417 10.6247C12.8767 10.6247 13.3104 10.1919 13.3104 9.65804C13.3104 9.12418 12.8767 8.69141 12.3417 8.69141C11.8067 8.69141 11.373 9.12418 11.373 9.65804C11.373 10.1919 11.8067 10.6247 12.3417 10.6247Z" fill="white"/>
<path d="M11.9169 13.0397C12.4519 13.0397 12.8856 12.6069 12.8856 12.0731C12.8856 11.5392 12.4519 11.1064 11.9169 11.1064C11.3819 11.1064 10.9482 11.5392 10.9482 12.0731C10.9482 12.6069 11.3819 13.0397 11.9169 13.0397Z" fill="white"/>
<path d="M9.50191 13.444C10.0369 13.444 10.4706 13.0112 10.4706 12.4774C10.4706 11.9435 10.0369 11.5107 9.50191 11.5107C8.96691 11.5107 8.5332 11.9435 8.5332 12.4774C8.5332 13.0112 8.96691 13.444 9.50191 13.444Z" fill="white"/>
<path d="M6.96675 13.9997C7.50175 13.9997 7.93545 13.5669 7.93545 13.033C7.93545 12.4992 7.50175 12.0664 6.96675 12.0664C6.43175 12.0664 5.99805 12.4992 5.99805 13.033C5.99805 13.5669 6.43175 13.9997 6.96675 13.9997Z" fill="white"/>
<path d="M13.624 6.96335C13.3149 6.96335 13.0397 7.0649 12.8211 7.18902C12.9493 6.94454 13.0586 6.65117 13.0586 6.33899C13.0586 5.54914 12.5045 5 12.3386 5C12.1728 5 11.6338 5.63564 11.6338 6.46687C11.6338 7.0649 12.0183 7.49368 12.2331 7.68926C12.2331 7.68926 12.8965 8.40013 13.6843 8.40013C14.4721 8.40013 15.0261 7.84723 15.0261 7.68174C15.0261 7.51625 14.457 6.96335 13.624 6.96335Z" fill="white"/>
</svg>
