<svg width="20" height="21" viewBox="0 0 20 21" fill="none" xmlns="http://www.w3.org/2000/svg">
<g clip-path="url(#clip0_3408_9242)">
<path d="M3.52942 11.0879C1.58545 11.0879 0 12.6552 0 14.5945C0 17.0326 3.23463 20.4997 3.52942 20.4997C3.79233 20.4997 7.05882 16.6843 7.05882 14.5945C7.05882 12.6552 5.47338 11.0879 3.52942 11.0879ZM3.48958 15.8611C2.81238 15.8611 2.26265 15.3149 2.26265 14.642C2.26265 13.9692 2.81238 13.423 3.48958 13.423C4.16678 13.423 4.7165 13.9692 4.7165 14.642C4.70854 15.3149 4.16678 15.8611 3.48958 15.8611Z" fill="#202645"/>
<path d="M16.433 13.3104H12.5206C11.7793 13.3104 11.178 12.6728 11.178 11.8926C11.178 11.1208 11.7958 10.4748 12.5206 10.4748H16.3506C16.6224 10.4748 19.9995 6.43121 19.9995 4.21644C19.9995 2.16946 18.3686 0.5 16.3506 0.5C14.3409 0.5 12.7018 2.16107 12.7018 4.21644C12.7018 5.50839 13.5337 7.06879 14.415 8.3104H12.5206C10.6097 8.3104 9.06119 9.91275 9.06119 11.8926C9.06119 13.8725 10.6179 15.4748 12.5206 15.4748H16.433C17.1825 15.4748 17.7838 16.1208 17.7838 16.9094C17.7838 17.698 17.1743 18.344 16.433 18.344H7.52093L5.88184 20.5H16.4248C18.3439 20.5 19.9006 18.8893 19.9006 16.9094C19.9006 14.9295 18.3439 13.3104 16.433 13.3104ZM16.3095 2.97483C17.0096 2.97483 17.5779 3.55369 17.5779 4.26678C17.5779 4.97987 17.0096 5.55873 16.3095 5.55873C15.6093 5.55873 15.041 4.97987 15.041 4.26678C15.041 3.55369 15.6093 2.97483 16.3095 2.97483Z" fill="#202645"/>
</g>
<defs>
<clipPath id="clip0_3408_9242">
<rect width="20" height="20" fill="white" transform="translate(0 0.5)"/>
</clipPath>
</defs>
</svg>
