<svg width="20" height="21" viewBox="0 0 20 21" fill="none" xmlns="http://www.w3.org/2000/svg">
<path d="M9.65449 8.61275C10.8395 8.61275 11.8002 7.6512 11.8002 6.46507C11.8002 5.27893 10.8395 4.31738 9.65449 4.31738C8.46945 4.31738 7.50879 5.27893 7.50879 6.46507C7.50879 7.6512 8.46945 8.61275 9.65449 8.61275Z" fill="#A71E3B"/>
<path d="M4.31562 9.55025C5.50066 9.55025 6.46133 8.5887 6.46133 7.40257C6.46133 6.21643 5.50066 5.25488 4.31562 5.25488C3.13059 5.25488 2.16992 6.21643 2.16992 7.40257C2.16992 8.5887 3.13059 9.55025 4.31562 9.55025Z" fill="#A71E3B"/>
<path d="M3.40351 14.8676C4.58854 14.8676 5.54921 13.9061 5.54921 12.7199C5.54921 11.5338 4.58854 10.5723 3.40351 10.5723C2.21847 10.5723 1.25781 11.5338 1.25781 12.7199C1.25781 13.9061 2.21847 14.8676 3.40351 14.8676Z" fill="#A71E3B"/>
<path d="M8.69843 13.9604C9.88347 13.9604 10.8441 12.9989 10.8441 11.8127C10.8441 10.6266 9.88347 9.66504 8.69843 9.66504C7.5134 9.66504 6.55273 10.6266 6.55273 11.8127C6.55273 12.9989 7.5134 13.9604 8.69843 13.9604Z" fill="#A71E3B"/>
<path d="M14.048 13.0039C15.2331 13.0039 16.1937 12.0423 16.1937 10.8562C16.1937 9.67005 15.2331 8.7085 14.048 8.7085C12.863 8.7085 11.9023 9.67005 11.9023 10.8562C11.9023 12.0423 12.863 13.0039 14.048 13.0039Z" fill="#A71E3B"/>
<path d="M13.1086 18.3584C14.2936 18.3584 15.2543 17.3968 15.2543 16.2107C15.2543 15.0245 14.2936 14.063 13.1086 14.063C11.9236 14.063 10.9629 15.0245 10.9629 16.2107C10.9629 17.3968 11.9236 18.3584 13.1086 18.3584Z" fill="#A71E3B"/>
<path d="M7.76484 19.2685C8.94988 19.2685 9.91054 18.307 9.91054 17.1208C9.91054 15.9347 8.94988 14.9731 7.76484 14.9731C6.5798 14.9731 5.61914 15.9347 5.61914 17.1208C5.61914 18.307 6.5798 19.2685 7.76484 19.2685Z" fill="#A71E3B"/>
<path d="M2.1457 20.5C3.33074 20.5 4.2914 19.5384 4.2914 18.3523C4.2914 17.1661 3.33074 16.2046 2.1457 16.2046C0.960663 16.2046 0 17.1661 0 18.3523C0 19.5384 0.960663 20.5 2.1457 20.5Z" fill="#A71E3B"/>
<path d="M16.8946 4.86222C16.21 4.86222 15.6005 5.08786 15.1163 5.36363C15.4001 4.82044 15.6423 4.16861 15.6423 3.475C15.6423 1.72009 14.415 0.5 14.0476 0.5C13.6802 0.5 12.4863 1.91229 12.4863 3.75913C12.4863 5.08786 13.3379 6.04052 13.8138 6.47508C13.8138 6.47508 15.2833 8.0545 17.0282 8.0545C18.7731 8.0545 20.0005 6.82606 20.0005 6.45836C20.0005 6.09067 18.7398 4.86222 16.8946 4.86222Z" fill="#A71E3B"/>
</svg>
