<svg width="38" height="32" viewBox="0 0 38 32" fill="none" xmlns="http://www.w3.org/2000/svg">
<g clip-path="url(#clip0_4898_351)">
<path d="M35.0272 0.0327148C35.1432 0.860761 35.2583 1.66472 35.3674 2.46975C35.4252 2.89618 35.4731 3.32368 35.5233 3.75118C35.644 4.78022 35.3092 5.62193 34.5571 6.24467C34.1814 6.55568 33.7589 6.81779 33.3268 7.02957C32.6692 7.35136 31.9783 7.59442 31.3136 7.90148C30.865 8.10858 30.4271 8.34876 30.0046 8.61195C29.7778 8.75325 29.5934 8.97366 29.3566 9.18831C29.1241 8.98408 28.8785 8.76871 28.648 8.56665C28.7106 8.2355 28.8802 8.03954 29.0906 7.90327C29.4138 7.69402 29.745 7.48979 30.0926 7.33519C30.7713 7.03316 31.4688 6.78076 32.1486 6.48125C32.5491 6.30471 32.9458 6.10444 33.3151 5.8639C33.6064 5.6737 33.8774 5.42993 34.1152 5.16602C34.4926 4.7475 34.6863 4.23154 34.6732 3.58867C34.331 3.55164 33.9938 3.57069 33.6546 3.57645C33.6295 3.65303 33.602 3.70732 33.594 3.76449C33.5358 4.17222 33.3215 4.47856 33.0137 4.69069C32.6778 4.92224 32.3269 5.13869 31.9603 5.30624C31.3357 5.59172 30.6894 5.82184 30.0611 6.09797C29.6292 6.28781 29.1987 6.49096 28.7916 6.73438C28.4948 6.91163 28.2369 7.1644 27.9428 7.39882C27.7378 7.02777 27.6565 6.61213 27.6274 6.18498C27.5504 5.05671 27.6301 3.93599 27.7836 2.81923C27.894 2.0142 28.0011 1.20845 28.1115 0.403413C28.1275 0.285479 28.1529 0.168984 28.1777 0.0334335C30.4616 0.0327144 32.7387 0.0327148 35.0272 0.0327148Z" fill="#202645"/>
<path d="M3.52441 22.9085C3.52441 22.5712 3.52441 22.2537 3.52441 21.9409C3.78198 21.8647 6.36438 21.8478 6.78318 21.9183C6.78318 22.2315 6.78318 22.5489 6.78318 22.8981C6.48112 22.9337 6.17672 22.9696 5.81913 23.0117C6.59954 25.2804 7.38596 27.51 8.18979 29.8029C8.2607 29.677 8.3082 29.6152 8.33362 29.5444C8.94978 27.8365 9.5616 26.1268 10.1811 24.4204C10.247 24.2388 10.2514 24.0799 10.1791 23.9034C10.0985 23.7063 10.0236 23.5046 9.97003 23.2975C9.90882 23.0602 9.7797 22.9793 9.55591 22.9808C9.3348 22.9822 9.11336 22.9369 8.86783 22.9092C8.86783 22.5838 8.86783 22.266 8.86783 21.9456C9.08459 21.8633 11.5887 21.8342 12.1186 21.9154C12.159 22.2347 12.147 22.5608 12.1226 22.9009C11.759 22.9387 11.4198 22.9739 11.0311 23.0146C11.8065 25.233 12.5678 27.4122 13.3295 29.5915C13.3566 29.5929 13.3833 29.5943 13.4104 29.5958C13.66 28.8925 13.8496 28.1662 14.0671 27.4507C14.2919 26.7111 14.5113 25.9697 14.7331 25.229C14.9508 24.502 15.1686 23.775 15.3967 23.0131C15.0485 22.975 14.7414 22.9412 14.4069 22.9045C14.4069 22.5745 14.4069 22.2484 14.4069 21.8996C15.4827 21.8996 16.5464 21.8996 17.6329 21.8996C17.6329 22.2368 17.6329 22.554 17.6329 22.9056C17.376 22.9329 17.1248 22.9649 16.8726 22.9854C16.5464 23.012 16.5441 23.0074 16.4397 23.3547C15.9477 24.9953 15.4566 26.6363 14.9656 28.2773C14.6518 29.3257 14.3387 30.3742 14.0239 31.4223C13.9935 31.5237 13.9557 31.6229 13.9149 31.7412C13.5921 31.7412 13.2733 31.7412 12.9194 31.7412C12.246 29.8191 11.5686 27.8847 10.8598 25.8618C10.7822 26.0308 10.7304 26.1254 10.6939 26.2264C10.0864 27.9124 9.48098 29.599 8.87452 31.2849C8.81899 31.4395 8.75912 31.592 8.69991 31.7491C8.36707 31.7491 8.05765 31.7491 7.7198 31.7491C7.66795 31.6154 7.60975 31.4759 7.55991 31.3335C6.62964 28.6782 5.6967 26.0236 4.77647 23.364C4.68582 23.1023 4.57711 22.9721 4.30515 22.9797C4.05327 22.9872 3.79904 22.9362 3.52441 22.9085Z" fill="#202645"/>
<path d="M21.9883 22.9103C21.9883 22.5669 21.9883 22.2498 21.9883 21.91C22.0917 21.8981 22.1766 21.8802 22.2616 21.8798C22.7965 21.8773 23.3318 21.8888 23.8664 21.8733C24.0741 21.8672 24.1842 21.9571 24.2892 22.1376C25.2754 23.8332 26.2693 25.5239 27.2609 27.2159C27.6586 27.8947 28.0561 28.5739 28.4552 29.252C28.5124 29.3495 28.5766 29.4422 28.6472 29.5519C28.7389 29.2927 28.7706 23.6222 28.6893 23.0207C28.316 22.9836 27.933 22.9455 27.5309 22.9056C27.5309 22.5716 27.5309 22.2541 27.5309 21.9391C27.7831 21.8636 30.4175 21.8507 30.7832 21.9262C30.7832 22.2372 30.7832 22.5536 30.7832 22.9024C30.4761 22.9401 30.1713 22.9775 29.8191 23.0207C29.8181 24.0184 29.8164 25.0079 29.8157 25.9974C29.8151 26.9797 29.8157 27.962 29.8157 28.9443C29.8157 29.9373 29.8157 30.9308 29.8157 31.9627C29.4822 32.0084 29.1617 31.9958 28.8456 31.9706C28.766 31.9641 28.68 31.8282 28.6238 31.7333C28.0852 30.8244 27.5523 29.9115 27.018 28.9993C26.2345 27.6617 25.4514 26.3239 24.6669 24.9867C24.6047 24.8806 24.5338 24.7807 24.4521 24.6548C24.3692 24.968 24.3588 30.2361 24.4341 30.6219C24.7994 30.6568 25.1737 30.6924 25.5805 30.7309C25.6153 31.062 25.6073 31.3892 25.5812 31.7408C24.502 31.7408 23.4368 31.7408 22.3322 31.7408C22.2756 31.4205 22.2987 31.094 22.3225 30.7381C22.6386 30.6985 22.9427 30.66 23.2659 30.6194C23.2659 28.091 23.2659 25.5821 23.2659 23.0365C22.8484 22.9955 22.4416 22.9552 21.9883 22.9103Z" fill="#202645"/>
<path d="M10.1351 8.75664C10.4994 8.79152 10.8731 8.82747 11.2729 8.86559C11.2729 9.20284 11.2729 9.52896 11.2729 9.87664C10.192 9.87664 9.12817 9.87664 8.04395 9.87664C8.04395 9.53795 8.04395 9.2201 8.04395 8.86882C8.34335 8.83323 8.63774 8.79835 8.92645 8.76419C8.99971 8.49777 9.02246 1.66234 8.9502 1.15214C8.66551 1.1169 8.37112 1.08022 8.05064 1.04031C8.05064 0.711324 8.05064 0.384137 8.05064 0.0342925C9.12449 0.0342925 10.1883 0.0342925 11.2762 0.0342925C11.2762 0.367238 11.2762 0.684721 11.2762 1.0378C10.8938 1.07735 10.5115 1.1169 10.108 1.15861C10.108 1.99888 10.108 2.81937 10.108 3.63556C10.5563 3.88257 13.7374 4.15439 14.3024 4.02028C14.3024 3.084 14.3024 2.1427 14.3024 1.16113C13.918 1.12158 13.5357 1.08202 13.1319 1.04031C13.1319 0.709167 13.1319 0.390965 13.1319 0.0720449C13.3641 -0.00202252 15.7309 -0.0293478 16.3578 0.0400456C16.4087 0.359327 16.3882 0.6858 16.3658 1.0378C16.0574 1.07627 15.7627 1.1133 15.4743 1.14926C15.4064 1.4333 15.394 8.34999 15.4619 8.75808C15.7473 8.79403 16.0417 8.83107 16.3598 8.87098C16.3598 9.20752 16.3598 9.53363 16.3598 9.87916C15.2806 9.87916 14.2255 9.87916 13.1479 9.87916C13.0673 9.55269 13.1262 9.22478 13.1075 8.87026C13.5126 8.83107 13.8863 8.79511 14.2549 8.75952C14.3375 8.5028 14.3586 5.72635 14.2867 5.30136C12.9021 5.18091 11.5194 5.06046 10.1308 4.93965C10.0675 5.17624 10.0585 8.3784 10.1351 8.75664Z" fill="#202645"/>
<path d="M37.959 31.748C35.7916 31.748 33.6439 31.748 31.4743 31.748C31.4107 31.4147 31.4371 31.0875 31.4599 30.7358C31.766 30.6981 32.0607 30.6618 32.403 30.6193C32.4033 28.0892 32.403 25.5684 32.4033 23.0224C32.0771 22.9814 31.7827 22.9447 31.4642 22.9048C31.4642 22.5712 31.4642 22.2447 31.4642 21.8984C33.5529 21.8984 35.6223 21.8984 37.6897 21.8984C37.774 22.148 37.7975 24.1485 37.7195 24.6317C37.4342 24.718 37.1394 24.6709 36.7992 24.658C36.752 24.1327 36.7052 23.6157 36.6567 23.0767C35.6053 23.0767 34.5756 23.0767 33.5234 23.0767C33.5234 24.0827 33.5234 25.0686 33.5234 26.0793C34.0972 26.0793 34.6478 26.0793 35.2266 26.0793C35.2593 25.7643 35.2908 25.4598 35.3242 25.1362C35.6414 25.1362 35.9371 25.1362 36.2285 25.1362C36.3054 25.4296 36.3118 27.8943 36.2359 28.2388C35.9448 28.2388 35.6494 28.2388 35.3249 28.2388C35.2931 27.9277 35.2634 27.634 35.2292 27.2975C34.6665 27.223 34.1082 27.2547 33.5248 27.264C33.5248 28.3826 33.5248 29.4533 33.5248 30.5215C33.769 30.5981 36.4269 30.6208 36.9012 30.5453C36.9447 29.8481 36.9889 29.1391 37.0337 28.4157C37.3525 28.4157 37.6396 28.4157 37.9249 28.4157C38.0012 28.6688 38.0283 31.0997 37.959 31.748Z" fill="#202645"/>
<path d="M8.0458 20.8049C8.0458 20.4724 8.0458 20.1549 8.0458 19.8014C8.3412 19.7662 8.63559 19.731 8.92563 19.6965C9.00023 19.4361 9.02766 12.6716 8.95474 12.0869C8.66971 12.0506 8.37566 12.0132 8.04413 11.9711C8.007 11.6486 8.02004 11.3207 8.03978 10.9673C10.1356 10.9673 12.2151 10.9673 14.3397 10.9673C14.3601 11.8719 14.3454 12.7755 14.3498 13.6898C14.0253 13.7919 13.7292 13.729 13.3883 13.7405C13.3398 13.2048 13.293 12.6877 13.2441 12.1473C12.1944 12.1473 11.164 12.1473 10.1089 12.1473C10.1089 13.1746 10.1089 14.1871 10.1089 15.1988C10.3514 15.2894 11.441 15.2984 11.8123 15.206C11.8431 14.9116 11.8749 14.6059 11.909 14.2766C12.2205 14.2766 12.5162 14.2766 12.8136 14.2766C12.8915 14.5125 12.9173 16.6611 12.8437 17.2184C12.5466 17.2921 12.2429 17.2619 11.9164 17.2332C11.8829 16.975 11.8515 16.7305 11.8143 16.4429C11.532 16.4429 11.257 16.4429 10.9823 16.4429C10.7044 16.4429 10.4267 16.4429 10.1577 16.4429C10.0691 16.7129 10.0487 19.1596 10.1226 19.6012C10.3705 19.6684 13.0852 19.6839 13.4894 19.6123C13.5305 18.9241 13.5723 18.2248 13.6151 17.5107C13.9269 17.4345 14.222 17.4723 14.512 17.482C14.5843 17.7574 14.5993 20.38 14.5321 20.8053C12.3804 20.8049 10.2243 20.8049 8.0458 20.8049Z" fill="#202645"/>
<path d="M20.9058 3.26206C21.2363 3.26206 21.523 3.26206 21.8064 3.26206C21.8766 3.53856 21.8907 5.93641 21.8244 6.36643C21.5334 6.36643 21.2383 6.36643 20.9165 6.36643C20.8861 6.0849 20.856 5.80589 20.8225 5.49775C20.2434 5.49775 19.6928 5.49775 19.1207 5.49775C19.1207 6.57461 19.1207 7.62234 19.1207 8.66611C19.3927 8.73982 22.1299 8.74953 22.4939 8.67366C22.537 7.98548 22.5808 7.2858 22.626 6.56238C22.9448 6.56238 23.2399 6.56238 23.5798 6.56238C23.5951 7.66297 23.5844 8.75672 23.5878 9.8742C21.3899 9.8742 19.2328 9.8742 17.0456 9.8742C17.0456 9.54054 17.0456 9.21371 17.0456 8.86926C17.3557 8.83222 17.6521 8.79699 17.9438 8.76211C18.0151 8.49353 18.0348 1.63546 17.9639 1.15366C17.6695 1.11627 17.3651 1.07744 17.0439 1.03645C17.0439 0.693795 17.0439 0.366604 17.0439 0.0253906C19.1428 0.0253906 21.2133 0.0253906 23.2797 0.0253906C23.3563 0.294694 23.3747 2.30602 23.3041 2.7738C23.0144 2.7738 22.72 2.7738 22.3861 2.7738C22.3433 2.27078 22.3002 1.76382 22.2577 1.2644C22.0151 1.17595 19.6727 1.14719 19.1572 1.2209C19.0866 1.47186 19.0662 3.79924 19.1304 4.25227C19.3589 4.32634 20.4261 4.34539 20.8078 4.27708C20.8275 4.12247 20.852 3.95924 20.8683 3.79492C20.8844 3.63061 20.8918 3.46485 20.9058 3.26206Z" fill="#202645"/>
<path d="M6.28457 11.6765C6.31066 11.4176 6.33341 11.1958 6.35716 10.9621C6.67095 10.9621 6.95531 10.9621 7.26308 10.9621C7.26308 12.0177 7.26308 13.0535 7.26308 14.1149C6.92286 14.1149 6.59368 14.1149 6.23572 14.1149C6.2113 14.011 6.18287 13.8988 6.15878 13.7852C5.93598 12.7404 5.15785 12.0371 4.16328 11.9832C3.74813 11.9609 3.33834 11.9925 2.94258 12.1403C2.62076 12.2604 2.33674 12.4431 2.12966 12.7433C1.68406 13.3887 1.84263 14.2347 2.52508 14.5547C2.99978 14.7773 3.51964 14.8912 4.02378 15.0376C4.44262 15.1591 4.86982 15.2482 5.28899 15.3694C5.50309 15.4313 5.71084 15.5233 5.91524 15.6179C7.704 16.4456 7.74882 18.6205 6.81681 19.825C6.36051 20.4147 5.76503 20.7454 5.07824 20.8828C4.20677 21.0572 3.34602 20.9806 2.50902 20.6631C2.08383 20.502 1.70313 20.2568 1.37696 19.9178C1.33012 19.8692 1.2776 19.8271 1.17892 19.7376C1.10431 20.1227 1.03808 20.4632 0.971504 20.8073C0.663398 20.8073 0.378374 20.8073 0.0963609 20.8073C0.0505297 20.489 0.299758 18.1322 0.448627 17.4599C0.781154 17.4599 1.12004 17.4599 1.47933 17.4599C1.49505 17.5616 1.51178 17.6522 1.52215 17.7436C1.6118 18.5324 1.98615 19.1091 2.65655 19.4417C3.42062 19.8207 4.22417 19.8994 5.04043 19.6926C5.74998 19.5132 6.22201 18.9617 6.30966 18.2441C6.38493 17.6278 6.19558 17.1154 5.68006 16.8162C5.35122 16.6257 4.98557 16.4934 4.62293 16.3873C4.04319 16.2179 3.44939 16.1044 2.86765 15.9429C2.58898 15.8656 2.317 15.7495 2.05406 15.6215C0.526239 14.8783 0.53226 12.9425 1.31574 11.9523C1.73725 11.4194 2.27351 11.1001 2.89608 10.9405C3.78827 10.7118 4.66776 10.7373 5.50811 11.1695C5.76537 11.3025 5.99921 11.4885 6.28457 11.6765Z" fill="#202645"/>
<path d="M18.7665 12.0932C18.2721 12.0533 17.8198 12.017 17.3424 11.9785C17.3424 11.6348 17.3424 11.309 17.3424 10.9624C18.1938 10.9624 19.0258 10.9624 19.8879 10.9624C19.9417 11.0735 20.0053 11.1968 20.0628 11.3238C21.2641 13.9844 22.4678 16.6433 23.6597 19.309C23.7852 19.5895 23.922 19.7469 24.2325 19.7279C24.473 19.7131 24.7172 19.77 24.9808 19.7969C24.9808 20.1306 24.9808 20.4491 24.9808 20.7688C24.7503 20.8432 22.3862 20.8702 21.7582 20.8008C21.6877 20.484 21.7231 20.1583 21.7378 19.8081C22.0299 19.7728 22.3022 19.7401 22.6033 19.7042C22.5611 19.5862 22.536 19.4974 22.4992 19.4147C22.2778 18.9182 22.0459 18.4267 21.8348 17.9251C21.7562 17.7385 21.6448 17.6472 21.4618 17.6242C20.8423 17.5461 20.2241 17.4559 19.6042 17.3836C19.185 17.3347 18.7638 17.3081 18.3145 17.2689C18.0583 18.0801 17.8094 18.8678 17.5485 19.693C17.9004 19.7326 18.2075 19.7671 18.5387 19.8041C18.5387 20.1259 18.5387 20.4434 18.5387 20.7602C18.3115 20.8432 15.7681 20.8691 15.291 20.79C15.291 20.4783 15.291 20.1615 15.291 19.7969C15.5563 19.7707 15.8286 19.73 16.1016 19.7214C16.3063 19.7149 16.4157 19.6441 16.4856 19.4205C17.2203 17.0722 17.9663 14.7283 18.7076 12.3823C18.732 12.3053 18.7407 12.2226 18.7665 12.0932ZM19.6935 13.1887C19.6627 13.1905 19.6319 13.192 19.6012 13.1938C19.2994 14.1505 18.998 15.1069 18.6825 16.1069C19.5058 16.196 20.2809 16.2802 21.129 16.3722C20.6278 15.2605 20.1605 14.2246 19.6935 13.1887Z" fill="#202645"/>
<path d="M1.08599 1.24137C1.04417 1.73719 1.00168 2.24488 0.956856 2.77702C0.642397 2.77702 0.347672 2.77702 0.00276527 2.77702C-0.00225275 1.86951 0.00109199 0.966318 0.00109199 0.0375977C2.47464 0.0375977 4.91976 0.0375977 7.38361 0.0375977C7.38361 0.9487 7.38361 1.84254 7.38361 2.77522C7.07852 2.82484 6.77576 2.81369 6.44524 2.77594C6.40108 2.25387 6.35793 1.74618 6.3131 1.21657C5.62329 1.21657 4.96091 1.21657 4.30155 1.21657C4.2343 1.49881 4.22159 8.34825 4.29084 8.75419C4.69964 8.79014 5.11781 8.82717 5.56308 8.86636C5.56308 9.20003 5.56308 9.52578 5.56308 9.87526C4.31827 9.87526 3.08717 9.87526 1.83434 9.87526C1.83434 9.54196 1.83434 9.22448 1.83434 8.86744C2.25385 8.83113 2.67135 8.79481 3.07647 8.75994C3.09554 8.74088 3.10423 8.73297 3.11159 8.72434C3.11895 8.71571 3.13033 8.70672 3.131 8.69702C3.14037 8.59023 3.15475 8.48344 3.15475 8.37666C3.15609 6.0047 3.15575 3.63311 3.15575 1.26978C2.90352 1.17486 1.48943 1.1558 1.08599 1.24137Z" fill="#202645"/>
<path d="M31.6695 15.3823C31.6695 16.8363 31.6695 18.2454 31.6695 19.6843C31.989 19.7249 32.2927 19.7638 32.6146 19.8051C32.6146 20.1395 32.6146 20.4573 32.6146 20.8025C31.619 20.8025 30.6321 20.8025 29.6094 20.8025C29.5532 20.4829 29.5947 20.1557 29.5827 19.8073C29.9189 19.7663 30.2243 19.7289 30.5508 19.6886C30.5508 18.2518 30.5508 16.8327 30.5508 15.3754C30.24 15.3388 29.9349 15.3028 29.5991 15.2629C29.593 15.0885 29.5857 14.9249 29.5827 14.7613C29.58 14.6074 29.582 14.4535 29.582 14.2741C29.777 14.2547 29.9487 14.2375 30.137 14.2184C30.0768 13.9836 30.0065 13.7697 29.9684 13.5493C29.8239 12.7094 30.0453 11.996 30.686 11.4833C31.331 10.967 32.0539 10.8951 32.7658 11.292C33.2365 11.5545 33.6605 11.9137 34.1349 12.2506C33.9455 12.5533 33.7742 12.8269 33.5926 13.1178C33.4982 13.0707 33.4174 13.0384 33.3438 12.9927C33.0163 12.7881 32.6945 12.5727 32.3637 12.3746C31.9251 12.1122 31.4343 12.2114 31.1667 12.6037C30.9191 12.9661 30.9753 13.5263 31.2995 13.8894C31.5203 14.1368 31.7966 14.2421 32.1118 14.2446C32.446 14.2475 32.7802 14.2522 33.1144 14.2565C33.1251 14.2565 33.1358 14.2633 33.1833 14.2795C33.2258 14.5902 33.2244 14.9145 33.1779 15.2694C32.6788 15.3064 32.1941 15.3427 31.6695 15.3823Z" fill="#202645"/>
<path d="M19.2329 23.0137C18.9224 22.9767 18.6257 22.9415 18.3096 22.9037C18.3096 22.5693 18.3096 22.2519 18.3096 21.9398C18.5722 21.8657 20.8801 21.8488 21.309 21.9171C21.309 22.2288 21.309 22.5456 21.309 22.9055C21.0216 22.9397 20.7273 22.9749 20.4362 23.0094C20.3566 23.2633 20.3241 29.952 20.4017 30.6182C20.6858 30.6549 20.9798 30.6927 21.3047 30.7347C21.3047 31.0583 21.3047 31.3852 21.3047 31.739C20.3158 31.739 19.3292 31.739 18.3149 31.739C18.3149 31.4078 18.3149 31.0803 18.3149 30.7347C18.627 30.6973 18.9234 30.6617 19.2148 30.6269C19.2871 30.3576 19.3055 23.4804 19.2329 23.0137Z" fill="#202645"/>
<path d="M24.7383 16.7004C24.7396 15.2942 25.7342 14.2371 27.0533 14.2407C28.37 14.2443 29.3555 15.3064 29.3522 16.7177C29.3488 18.0976 28.3489 19.1633 27.0536 19.1677C25.7466 19.1727 24.7369 18.0966 24.7383 16.7004ZM27.0603 17.993C27.7558 17.9858 28.264 17.4404 28.2646 16.7004C28.2653 15.9497 27.7324 15.3913 27.0275 15.4042C26.339 15.4168 25.8145 15.9766 25.8128 16.6997C25.8105 17.4328 26.3581 18.0002 27.0603 17.993Z" fill="#202645"/>
<path d="M35.4032 7.08936C35.0221 8.17124 34.3601 8.93097 33.4249 9.42356C32.5153 9.90284 31.1303 10.0143 30.4854 9.64217C30.6954 9.51093 30.8755 9.3725 31.0738 9.27902C31.5415 9.05825 32.0138 8.84684 32.4919 8.6534C33.483 8.25286 34.4598 7.82608 35.2985 7.10697C35.3112 7.09583 35.3356 7.09978 35.4032 7.08936Z" fill="#202645"/>
<path d="M35.0281 0.0332031C35.1442 0.861249 35.2593 1.6652 35.3684 2.47024C35.4262 2.89666 35.4741 3.32417 35.5243 3.75167C35.645 4.7807 35.3101 5.62241 34.5581 6.24515C34.1824 6.55616 33.7599 6.81828 33.3278 7.03005C32.6701 7.35185 31.9793 7.59491 31.3146 7.90196C30.866 8.10906 30.4281 8.34924 30.0056 8.61243C29.7787 8.75374 29.5944 8.97414 29.3576 9.18879C29.1251 8.98457 28.8795 8.7692 28.649 8.56713C28.7116 8.23598 28.8812 8.04003 29.0916 7.90376C29.4148 7.6945 29.746 7.49028 30.0935 7.33567C30.7723 7.03365 31.4698 6.78124 32.1496 6.48174C32.55 6.3052 32.9468 6.10493 33.3161 5.86439C33.6074 5.67419 33.8783 5.43041 34.1162 5.1665C34.4935 4.74799 34.6872 4.23203 34.6742 3.58916C34.332 3.55212 33.9948 3.57118 33.6555 3.57693C33.6304 3.65351 33.603 3.70781 33.595 3.76498C33.5368 4.17271 33.3225 4.47904 33.0147 4.69118C32.6788 4.92273 32.3279 5.13918 31.9613 5.30673C31.3367 5.59221 30.6904 5.82232 30.0621 6.09846C29.6302 6.2883 29.1997 6.49145 28.7925 6.73486C28.4958 6.91212 28.2379 7.16488 27.9438 7.39931C27.7388 7.02825 27.6575 6.61261 27.6284 6.18547C27.5514 5.0572 27.631 3.93648 27.7846 2.81972C27.895 2.01469 28.002 1.20893 28.1124 0.403901C28.1285 0.285967 28.1539 0.169472 28.1787 0.0339218C30.4625 0.0332027 32.7397 0.0332031 35.0281 0.0332031Z" fill="#202645"/>
<path d="M31.6695 15.3823C31.6695 16.8363 31.6695 18.2454 31.6695 19.6843C31.989 19.7249 32.2927 19.7638 32.6146 19.8051C32.6146 20.1395 32.6146 20.4573 32.6146 20.8025C31.619 20.8025 30.6321 20.8025 29.6094 20.8025C29.5532 20.4829 29.5947 20.1557 29.5827 19.8073C29.9189 19.7663 30.2243 19.7289 30.5508 19.6886C30.5508 18.2518 30.5508 16.8327 30.5508 15.3754C30.24 15.3388 29.9349 15.3028 29.5991 15.2629C29.593 15.0885 29.5857 14.9249 29.5827 14.7613C29.58 14.6074 29.582 14.4535 29.582 14.2741C29.777 14.2547 29.9487 14.2375 30.137 14.2184C30.0768 13.9836 30.0065 13.7697 29.9684 13.5493C29.8239 12.7094 30.0453 11.996 30.686 11.4833C31.331 10.967 32.0539 10.8951 32.7658 11.292C33.2365 11.5545 33.6605 11.9137 34.1349 12.2506C33.9455 12.5533 33.7742 12.8269 33.5926 13.1178C33.4982 13.0707 33.4174 13.0384 33.3438 12.9927C33.0163 12.7881 32.6945 12.5727 32.3637 12.3746C31.9251 12.1122 31.4343 12.2114 31.1667 12.6037C30.9191 12.9661 30.9753 13.5263 31.2995 13.8894C31.5203 14.1368 31.7966 14.2421 32.1118 14.2446C32.446 14.2475 32.7802 14.2522 33.1144 14.2565C33.1251 14.2565 33.1358 14.2633 33.1833 14.2795C33.2258 14.5902 33.2244 14.9145 33.1779 15.2694C32.6788 15.3064 32.1941 15.3427 31.6695 15.3823Z" fill="#202645"/>
<path d="M35.4032 7.08887C35.0221 8.17075 34.3601 8.93048 33.4249 9.42307C32.5153 9.90235 31.1303 10.0138 30.4854 9.64167C30.6954 9.51044 30.8755 9.37201 31.0738 9.27853C31.5415 9.05776 32.0138 8.84635 32.4919 8.65291C33.4829 8.25237 34.4598 7.82559 35.2985 7.10649C35.3112 7.09534 35.3356 7.09929 35.4032 7.08887Z" fill="#202645"/>
</g>
<defs>
<clipPath id="clip0_4898_351">
<rect width="38" height="32" fill="white"/>
</clipPath>
</defs>
</svg>
