<svg width="20" height="20" viewBox="0 0 20 20" fill="none" xmlns="http://www.w3.org/2000/svg">
<path d="M6.85338 11.219C7.79392 11.219 8.55637 10.4582 8.55637 9.51965C8.55637 8.58113 7.79392 7.82031 6.85338 7.82031C5.91285 7.82031 5.15039 8.58113 5.15039 9.51965C5.15039 10.4582 5.91285 11.219 6.85338 11.219Z" fill="#202645"/>
<path d="M14.9522 7.81819H9.63433C9.49328 7.81819 9.37836 7.93287 9.37836 8.07361V11.9206H4.35298V5.92077C4.35298 5.79566 4.24851 5.69141 4.12313 5.69141H3.22985C3.10448 5.69141 3 5.79566 3 5.92077V15.142C3 15.2671 3.10448 15.3714 3.22985 15.3714H4.12313C4.24851 15.3714 4.35298 15.2671 4.35298 15.142V14.0109H15.647V15.142C15.647 15.2671 15.7515 15.3714 15.8769 15.3714H16.7702C16.8955 15.3714 17 15.2671 17 15.142V12.3741V10.5288V9.85635C16.9948 8.73041 16.0806 7.81819 14.9522 7.81819Z" fill="#202645"/>
</svg>
