<svg width="20" height="20" viewBox="0 0 20 20" fill="none" xmlns="http://www.w3.org/2000/svg">
<path d="M11.3852 6.03961H11.4518V2.86729H11.4C11.7111 2.86729 11.963 2.63128 11.963 2.33973V1.40955C11.963 1.18048 11.763 1 11.5259 1H8.42222C8.17778 1 7.98518 1.18742 7.98518 1.40955V2.34667C7.98518 2.63822 8.23704 2.87423 8.54815 2.87423H8.48148V6.03267C7.04444 6.48387 6 7.75419 6 9.25357V16.1258C6 17.1601 6.8963 18 8 18H12C13.1037 18 14 17.1601 14 16.1258V9.43406C14 7.86525 12.8963 6.51858 11.3852 6.03961ZM11.9407 15.1123H7.97778V10.0241H11.9407V15.1123Z" fill="#202645"/>
</svg>
