<svg width="20" height="20" viewBox="0 0 20 20" fill="none" xmlns="http://www.w3.org/2000/svg">
<path d="M16.306 4H4.69398C3.75819 4 3 4.75657 3 5.69036V6.50828H18V5.69036C18 4.75657 17.2418 4 16.306 4Z" fill="#202645"/>
<path d="M17.7951 8.97461H3.19808C3.08879 8.97461 3 9.06321 3 9.17227V14.0457C3 14.9318 3.72404 15.6543 4.61202 15.6543H16.3812C17.2691 15.6543 17.9932 14.9318 17.9932 14.0457V9.17227C18 9.06321 17.9112 8.97461 17.7951 8.97461ZM8.01366 12.7779C8.01366 13.0097 7.82241 13.1937 7.597 13.1937H5.88934C5.6571 13.1937 5.47268 13.0028 5.47268 12.7779V12.7643C5.47268 12.5325 5.66393 12.3485 5.88934 12.3485H7.597C7.82924 12.3485 8.01366 12.5394 8.01366 12.7643V12.7779ZM12.597 13.1937H9.23634C9.0041 13.1937 8.81285 13.0028 8.81285 12.7711C8.81285 12.5394 9.0041 12.3485 9.23634 12.3485H12.597C12.8292 12.3485 13.0205 12.5394 13.0205 12.7711C13.0205 13.0028 12.8292 13.1937 12.597 13.1937Z" fill="#202645"/>
</svg>
