<svg width="20" height="20" viewBox="0 0 20 20" fill="none" xmlns="http://www.w3.org/2000/svg">
<path d="M10 3C6.13793 3 3 6.13654 3 10.0031C3 13.8696 6.13793 17 10 17C13.8621 17 17 13.8635 17 10.0031C17.0062 6.13654 13.8683 3 10 3ZM13.5588 12.4282C13.435 12.6076 13.237 12.7066 13.0327 12.7066C12.9089 12.7066 12.7789 12.6695 12.6737 12.5952L9.61626 10.498C9.44297 10.3805 9.33775 10.1825 9.33775 9.97216V5.77154C9.33775 5.41891 9.62245 5.13433 9.97524 5.13433C10.328 5.13433 10.6127 5.41891 10.6127 5.77154V9.6319L13.3917 11.5373C13.6826 11.7353 13.7568 12.1374 13.5588 12.4282Z" fill="#202645"/>
</svg>
