<svg width="20" height="20" viewBox="0 0 20 20" fill="none" xmlns="http://www.w3.org/2000/svg">
<path d="M10 3C6.13328 3 3 6.13328 3 10C3 13.8667 6.13328 17 10 17C13.8667 17 17 13.8667 17 10C17 6.13328 13.8667 3 10 3ZM10 6.5088C11.062 6.5088 11.9187 7.36547 11.9187 8.42749C11.9187 9.48952 11.062 10.3462 10 10.3462C8.93797 10.3462 8.08131 9.48952 8.08131 8.42749C8.08131 7.36547 8.94384 6.5088 10 6.5088ZM12.9573 13.2565H7.04275C6.80218 13.2565 6.60268 13.0629 6.60268 12.8164C6.60268 11.995 7.26572 11.3319 8.08717 11.3319H11.907C12.7284 11.3319 13.3915 11.995 13.3915 12.8164C13.3973 13.0629 13.1978 13.2565 12.9573 13.2565Z" fill="#525560"/>
</svg>
