<svg width="18" height="18" viewBox="0 0 18 18" fill="none" xmlns="http://www.w3.org/2000/svg">
<path d="M7.82517 6.2433V7.4826H6.91797V8.9973H7.82517V13.5H9.68997V8.9973H10.941C10.941 8.9973 11.0589 8.271 11.1156 7.4763H9.69717V6.4413C9.69717 6.2856 9.90057 6.0777 10.1022 6.0777H11.1174V4.5H9.73587C7.77927 4.5 7.82517 6.0165 7.82517 6.2433Z" fill="#202645"/>
<path d="M3.6 1.8C3.12261 1.8 2.66477 1.98964 2.32721 2.32721C1.98964 2.66477 1.8 3.12261 1.8 3.6V14.4C1.8 14.8774 1.98964 15.3352 2.32721 15.6728C2.66477 16.0104 3.12261 16.2 3.6 16.2H14.4C14.8774 16.2 15.3352 16.0104 15.6728 15.6728C16.0104 15.3352 16.2 14.8774 16.2 14.4V3.6C16.2 3.12261 16.0104 2.66477 15.6728 2.32721C15.3352 1.98964 14.8774 1.8 14.4 1.8H3.6ZM3.6 0H14.4C15.3548 0 16.2705 0.379285 16.9456 1.05442C17.6207 1.72955 18 2.64522 18 3.6V14.4C18 15.3548 17.6207 16.2705 16.9456 16.9456C16.2705 17.6207 15.3548 18 14.4 18H3.6C2.64522 18 1.72955 17.6207 1.05442 16.9456C0.379285 16.2705 0 15.3548 0 14.4V3.6C0 2.64522 0.379285 1.72955 1.05442 1.05442C1.72955 0.379285 2.64522 0 3.6 0V0Z" fill="#202645"/>
</svg>
