<svg width="16" height="16" viewBox="0 0 16 16" fill="none" xmlns="http://www.w3.org/2000/svg">
<path d="M15.1146 0C15.3576 0 15.566 0.0868056 15.7396 0.260417C15.9132 0.434028 16 0.642361 16 0.885417L16 15.1146C16 15.3576 15.9132 15.566 15.7396 15.7396C15.566 15.9132 15.3576 16 15.1146 16H11.0417L11.0417 9.80208H13.1146L13.4271 7.38542L11.0417 7.38542V5.84375C11.0417 5.45486 11.1233 5.16319 11.2865 4.96875C11.4497 4.77431 11.7674 4.67708 12.2396 4.67708L13.5104 4.66667L13.5104 2.51042C13.0729 2.44792 12.4549 2.41667 11.6562 2.41667C10.7118 2.41667 9.9566 2.69444 9.39062 3.25C8.82465 3.80556 8.54167 4.59028 8.54167 5.60417V7.38542H6.45833L6.45833 9.80208H8.54167L8.54167 16L0.885417 16C0.642361 16 0.434028 15.9132 0.260417 15.7396C0.0868056 15.566 0 15.3576 0 15.1146L0 0.885417C0 0.642361 0.0868056 0.434028 0.260417 0.260417C0.434028 0.0868056 0.642361 0 0.885417 0L15.1146 0Z" fill="white"/>
</svg>
