<svg width="21" height="19" viewBox="0 0 21 19" fill="none" xmlns="http://www.w3.org/2000/svg">
<path d="M2.71349 18V11.1765C2.71349 10.8678 2.4633 10.6176 2.15467 10.6176H1.56412C0.652974 10.6176 0.21653 9.49855 0.887102 8.88168L9.86255 0.625081C10.2463 0.272085 10.8368 0.273161 11.2193 0.627553L20.1293 8.88416C20.7963 9.50225 20.359 10.6176 19.4496 10.6176H18.9294C18.6208 10.6176 18.3706 10.8678 18.3706 11.1765V18C18.3706 18.5523 17.9229 19 17.3706 19H14.033C13.4807 19 13.033 18.5523 13.033 18V14C13.033 13.4477 12.5852 13 12.033 13H9.05114C8.49886 13 8.05114 13.4477 8.05114 14V18C8.05114 18.5523 7.60343 19 7.05114 19H3.71349C3.16121 19 2.71349 18.5523 2.71349 18Z" fill="#202645"/>
</svg>
