<svg width="20" height="20" viewBox="0 0 20 20" fill="none" xmlns="http://www.w3.org/2000/svg">
<path d="M9.8317 11.483C9.85716 11.483 9.91317 11.4729 9.95391 11.422C10.514 10.7564 10.9978 10.1162 11.4001 9.52166L7.82031 8.91699C8.43137 9.94848 9.24611 10.9088 9.70949 11.422C9.75023 11.4779 9.80115 11.483 9.8317 11.483Z" fill="#202645"/>
<path d="M10.6575 12.0103C10.4538 12.2491 10.1585 12.3914 9.84789 12.3965C9.84279 12.3965 9.8377 12.3965 9.82752 12.3965C9.52199 12.3965 9.23174 12.2644 9.02296 12.0408C8.59522 11.5683 8.06055 10.928 7.56152 10.2116V14.6373L12.0986 15.9279V10.1201C11.6047 10.8417 11.0751 11.5124 10.6575 12.0103Z" fill="#202645"/>
<path d="M6.18257 7.30762L3.30043 8.48138C3.12221 8.55252 3 8.73036 3 8.92345V15.4579C3 15.839 3.387 16.1032 3.74345 15.961L6.75798 14.7516V8.8828C6.4881 8.35943 6.27932 7.82082 6.18257 7.30762Z" fill="#202645"/>
<path d="M15.9723 7.06912L13.2429 8.10568C13.1512 8.32926 13.0392 8.55791 12.917 8.79165V15.9307L16.4255 14.4877C16.5884 14.4216 16.6953 14.259 16.6953 14.0812V7.56708C16.6953 7.19615 16.3185 6.93701 15.9723 7.06912Z" fill="#202645"/>
<path d="M9.86163 4C8.30853 4 7.05078 5.25506 7.05078 6.80482C7.05078 8.31394 8.72609 10.448 9.48991 11.3423C9.68341 11.5659 10.0348 11.5608 10.2181 11.3322C10.9717 10.382 12.6776 8.10561 12.6776 6.80482C12.6725 5.25506 11.4147 4 9.86163 4ZM9.82599 7.82614C9.28622 7.82614 8.8483 7.38916 8.8483 6.85055C8.8483 6.31194 9.28622 5.87496 9.82599 5.87496C10.3658 5.87496 10.8037 6.31194 10.8037 6.85055C10.8037 7.38916 10.3658 7.82614 9.82599 7.82614Z" fill="#202645"/>
</svg>
