<svg width="20" height="20" viewBox="0 0 20 20" fill="none" xmlns="http://www.w3.org/2000/svg">
<path fill-rule="evenodd" clip-rule="evenodd" d="M0 1.46045C0 0.908163 0.447715 0.460449 1 0.460449H3.848C4.40029 0.460449 4.848 0.908164 4.848 1.46045V4.0965H0V1.46045ZM0 5.3085H4.848V15.0045H0V5.3085ZM0 16.2165V18.8525C0 19.4047 0.447714 19.8525 0.999999 19.8525H3.848C4.40029 19.8525 4.848 19.4047 4.848 18.8525V16.2165H0Z" fill="#202645"/>
<path fill-rule="evenodd" clip-rule="evenodd" d="M6.06055 1.46094C6.06055 0.908651 6.50826 0.460938 7.06055 0.460938H9.90855C10.4608 0.460938 10.9085 0.908653 10.9085 1.46094V4.09694H6.06055V1.46094ZM6.06055 5.30894H10.9085V15.0049H6.06055V5.30894ZM6.06055 16.2169V18.8529C6.06055 19.4052 6.50826 19.8529 7.06055 19.8529H9.90855C10.4608 19.8529 10.9085 19.4052 10.9085 18.8529V16.2169H6.06055Z" fill="#202645"/>
<path fill-rule="evenodd" clip-rule="evenodd" d="M10.5963 2.20971C10.4547 1.6759 10.7726 1.12834 11.3064 0.986694L14.0591 0.256268C14.593 0.114623 15.1405 0.432538 15.2822 0.96635L18.7172 13.912L14.0315 15.1553L14.3424 16.3268L19.0281 15.0835L19.7427 17.7766C19.8843 18.3104 19.5664 18.858 19.0326 18.9997L16.2799 19.7301C15.746 19.8717 15.1985 19.5538 15.0568 19.02L11.5446 5.78358L16.2302 4.54028L15.9194 3.36882L11.2338 4.61212L10.5963 2.20971Z" fill="#202645"/>
</svg>
