<svg width="17" height="18" viewBox="0 0 17 18" fill="none" xmlns="http://www.w3.org/2000/svg">
<path d="M4.86925 2.54104L1.27982 0.667878C0.697267 0.363872 0 0.786501 0 1.4436V14.5162C0 14.8422 0.181199 15.1412 0.470185 15.292L4.05962 17.1651C4.64217 17.4691 5.33943 17.0465 5.33943 16.3894V3.31676C5.33943 2.99079 5.15823 2.69185 4.86925 2.54104Z" fill="#A71E3B"/>
<path d="M6.25478 2.54104L9.84421 0.667878C10.4268 0.363872 11.124 0.786501 11.124 1.4436V14.5162C11.124 14.8422 10.9428 15.1412 10.6538 15.292L7.06441 17.1651C6.48186 17.4691 5.78459 17.0465 5.78459 16.3894V3.31676C5.78459 2.99079 5.96579 2.69185 6.25478 2.54104Z" fill="#A71E3B"/>
<path d="M16.4376 2.54104L12.8482 0.667878C12.2656 0.363872 11.5684 0.786501 11.5684 1.4436V14.5162C11.5684 14.8422 11.7496 15.1412 12.0385 15.292L15.628 17.1651C16.2105 17.4691 16.9078 17.0465 16.9078 16.3894V3.31676C16.9078 2.99079 16.7266 2.69185 16.4376 2.54104Z" fill="#A71E3B"/>
</svg>
