<svg width="15" height="20" viewBox="0 0 15 20" fill="none" xmlns="http://www.w3.org/2000/svg">
<path d="M3.4375 11.875H3.125V10H3.4375C3.95703 10 4.375 10.418 4.375 10.9375C4.375 11.457 3.95703 11.875 3.4375 11.875ZM7.5 10H7.8125C8.15625 10 8.4375 10.2812 8.4375 10.625V13.125C8.4375 13.4688 8.15625 13.75 7.8125 13.75H7.5V10ZM8.75 0V5C8.75 5.69141 9.30859 6.25 10 6.25H15V17.5C15 18.8789 13.8789 20 12.5 20H2.5C1.11914 20 0 18.8789 0 17.5V2.5C0 1.11914 1.11914 0 2.5 0H8.75ZM2.5 8.75C2.15469 8.75 1.875 9.03125 1.875 9.375V14.375C1.875 14.7188 2.15469 15 2.5 15C2.84531 15 3.125 14.7188 3.125 14.375V13.125H3.4375C4.64453 13.125 5.625 12.1445 5.625 10.9375C5.625 9.73047 4.64453 8.75 3.4375 8.75H2.5ZM6.25 14.375C6.25 14.7188 6.53125 15 6.875 15H7.8125C8.84766 15 9.6875 14.1602 9.6875 13.125V10.625C9.6875 9.58984 8.84766 8.75 7.8125 8.75H6.875C6.53125 8.75 6.25 9.03125 6.25 9.375V14.375ZM11.25 8.75C10.9062 8.75 10.625 9.03125 10.625 9.375V14.375C10.625 14.7188 10.9062 15 11.25 15C11.5938 15 11.875 14.7188 11.875 14.375V12.5H13.125C13.4688 12.5 13.75 12.2188 13.75 11.875C13.75 11.5312 13.4688 11.25 13.125 11.25H11.875V10H13.125C13.4688 10 13.75 9.71875 13.75 9.375C13.75 9.03125 13.4688 8.75 13.125 8.75H11.25ZM10 0L15 5H10V0Z" fill="#202645"/>
</svg>
