<svg width="20" height="20" viewBox="0 0 20 20" fill="none" xmlns="http://www.w3.org/2000/svg">
<path d="M10.5 3C6.90947 3 4 5.90947 4 9.5C4 13.0905 6.90947 16 10.5 16C14.0905 16 17 13.0905 17 9.5C17 5.90947 14.0905 3 10.5 3ZM15.36 7.99078C15.1966 7.95264 14.9677 7.90905 14.8043 7.9036C14.5264 7.8927 14.4828 8.01257 14.3575 8.20872C14.2267 8.40486 13.8889 8.6228 13.4966 8.47024C13.1044 8.31768 12.8701 8.2632 12.7121 8.44844C12.5541 8.63369 12.5922 8.66639 12.7557 8.86253C12.9191 9.05868 13.5348 9.54904 13.6928 9.89774C13.8508 10.2464 13.6928 10.6006 13.4095 10.7531C13.1262 10.9057 12.9736 10.8676 12.9246 11.0201C12.8755 11.1727 12.9355 11.5813 12.8101 11.9681C12.6848 12.355 12.0909 13.096 11.8403 13.3466C11.5897 13.5972 11.0557 13.619 10.8324 13.4719C10.609 13.3248 10.4455 13.1831 10.4455 12.829C10.4455 12.4694 10.4782 11.4505 10.4019 11.3034C10.3257 11.1563 10.2603 11.1018 9.65004 11.1018H9.07795C8.50042 11.1018 8.03185 10.6333 8.03185 10.0557V9.03143C8.03185 8.63914 8.21165 8.4321 8.68567 8.08885C9.15968 7.7456 9.60645 7.40779 9.80805 7.386C10.0096 7.36966 10.4074 7.58215 10.9631 7.71291C11.5189 7.84912 12.3198 7.5549 12.6249 7.40779C12.9246 7.26068 12.9082 6.77032 12.7066 6.57418C12.505 6.37804 11.7749 6.02389 11.6769 6.04023C11.5788 6.05658 11.3826 6.42707 11.0067 6.42707C10.6308 6.42162 10.293 6.04568 10.0587 6.11106C9.82439 6.17644 9.601 6.61777 9.35038 6.78122C9.09975 6.95012 8.72925 6.85205 8.77284 6.26907C8.81643 5.69153 8.81098 5.20117 8.7347 5.03772C8.69111 4.93965 8.59304 4.77074 8.52766 4.65633C8.48952 4.59094 8.51676 4.50922 8.58214 4.47653C10.6471 3.52305 14.3521 4.18231 15.5017 7.83277C15.5344 7.9254 15.4526 8.01257 15.36 7.99078Z" fill="#202645"/>
</svg>
