<svg width="20" height="20" viewBox="0 0 20 20" fill="none" xmlns="http://www.w3.org/2000/svg">
<path d="M5.60035 10.0752C4.1681 10.0752 3 11.2349 3 12.67C3 14.474 5.38316 17.0395 5.60035 17.0395C5.79405 17.0395 8.20068 14.2163 8.20068 12.67C8.20068 11.2349 7.03259 10.0752 5.60035 10.0752ZM5.571 13.6071C5.07206 13.6071 4.66704 13.203 4.66704 12.7051C4.66704 12.2072 5.07206 11.8031 5.571 11.8031C6.06993 11.8031 6.47495 12.2072 6.47495 12.7051C6.46908 13.203 6.06993 13.6071 5.571 13.6071Z" fill="#202645"/>
<path d="M14.4587 11.9441H11.6706C11.1423 11.9441 10.7138 11.4989 10.7138 10.9542C10.7138 10.4153 11.154 9.96431 11.6706 9.96431H14.4C14.5937 9.96431 17.0004 7.1411 17.0004 5.59478C17.0004 4.1656 15.8381 3 14.4 3C12.9678 3 11.7997 4.15974 11.7997 5.59478C11.7997 6.4968 12.3925 7.58625 13.0206 8.45313H11.6706C10.3087 8.45313 9.20521 9.57187 9.20521 10.9542C9.20521 12.3365 10.3146 13.4553 11.6706 13.4553H14.4587C14.9929 13.4553 15.4214 13.9063 15.4214 14.4568C15.4214 15.0074 14.987 15.4584 14.4587 15.4584H8.10755L6.93945 16.9638H14.4529C15.8205 16.9638 16.9299 15.8392 16.9299 14.4568C16.9299 13.0745 15.8205 11.9441 14.4587 11.9441ZM14.3707 4.7279C14.8696 4.7279 15.2746 5.13205 15.2746 5.62992C15.2746 6.12779 14.8696 6.53194 14.3707 6.53194C13.8717 6.53194 13.4667 6.12779 13.4667 5.62992C13.4667 5.13205 13.8717 4.7279 14.3707 4.7279Z" fill="#202645"/>
</svg>
