<svg width="20" height="20" viewBox="0 0 20 20" fill="none" xmlns="http://www.w3.org/2000/svg">
<path d="M16.8413 13.1489H15.6126V15.1352C15.6126 15.3771 15.4152 15.5744 15.1733 15.5744C14.9314 15.5744 14.734 15.3771 14.734 15.1352V13.1489H13.1297V15.1352C13.1297 15.3771 12.9324 15.5744 12.6905 15.5744C12.4485 15.5744 12.2512 15.3771 12.2512 15.1352V13.1489H10.666V15.1352C10.666 15.3771 10.4686 15.5744 10.2267 15.5744C10.0739 15.5744 9.93387 15.4917 9.85747 15.3707V13.2189H9.78744V13.1489H7.62927C7.50831 13.0725 7.42555 12.9324 7.42555 12.7796C7.42555 12.5377 7.62291 12.3404 7.86483 12.3404H9.85747V10.7551H7.87119C7.62927 10.7551 7.43192 10.5578 7.43192 10.3159C7.43192 10.074 7.62927 9.87659 7.87119 9.87659H9.85747V8.27228H7.87119C7.62927 8.27228 7.43192 8.07493 7.43192 7.83301C7.43192 7.59109 7.62927 7.39373 7.87119 7.39373H9.85747V6.16503C9.85747 5.52204 9.33544 5 8.69244 5H6.16503C5.52203 5 5 5.52204 5 6.16503V16.8286C5 17.1915 5.16552 17.5162 5.42654 17.7262C5.63026 17.8981 5.89128 18 6.17139 18H16.8349C17.4779 18 17.9999 17.478 17.9999 16.835V14.3075C18.0063 13.6709 17.4843 13.1489 16.8413 13.1489Z" fill="#202645"/>
</svg>
