<svg width="25" height="22" viewBox="0 0 25 22" fill="none" xmlns="http://www.w3.org/2000/svg">
<g clip-path="url(#clip0_3441_11864)">
<path d="M16.0594 6.49995L22.1134 7.40256C22.6147 7.47494 23.036 7.83257 23.1961 8.3222C23.3562 8.81608 23.2256 9.35253 22.8633 9.71869L18.4734 14.0699L19.5098 20.3116C19.594 20.8225 19.3876 21.3419 18.9663 21.6442C18.5492 21.9465 17.9973 21.9848 17.5465 21.7421L12.1371 18.8257L6.73185 21.7421C6.27685 21.9848 5.72495 21.9465 5.30787 21.6442C4.89079 21.3419 4.68014 20.8225 4.76861 20.3116L5.805 14.0699L1.41425 9.71869C1.05151 9.35253 0.922597 8.81608 1.08185 8.3222C1.24068 7.83257 1.66071 7.47494 2.16584 7.40256L8.21481 6.49995L10.928 0.865875C11.1512 0.396859 11.6231 0.0991211 12.1371 0.0991211C12.6553 0.0991211 13.1271 0.396859 13.3504 0.865875L16.0594 6.49995Z" fill="white"/>
</g>
<defs>
<clipPath id="clip0_3441_11864">
<rect width="24.2667" height="21.7989" fill="white" transform="translate(0 0.100586)"/>
</clipPath>
</defs>
</svg>
