<svg width="20" height="20" viewBox="0 0 20 20" fill="none" xmlns="http://www.w3.org/2000/svg">
<path d="M13.484 2H5.51595C4.67957 2 4 2.68785 4 3.51776V16.4822C4 17.3196 4.68703 18 5.51595 18H13.484C14.3204 18 14.9999 17.3122 14.9999 16.4822V3.52524C15.0074 2.68785 14.3204 2 13.484 2ZM11.0495 16.0411C11.0495 16.3327 10.8106 16.572 10.5193 16.572H8.57024C8.279 16.572 8.04004 16.3327 8.04004 16.0411C8.04004 15.7495 8.279 15.5103 8.57024 15.5103H10.5193C10.8106 15.5103 11.0495 15.7495 11.0495 16.0411ZM13.0509 14.1047H5.95655V3.96635H13.0509V14.1047Z" fill="#202645"/>
</svg>
