<svg width="20" height="20" viewBox="0 0 20 20" fill="none" xmlns="http://www.w3.org/2000/svg">
<path d="M12.9023 17.487H11.4363V13.3619C12.3369 13.1692 13.1746 12.691 13.8029 11.9987C14.6476 11.0709 15.0734 9.87196 14.9896 8.60873L14.5987 2.66373C14.5708 2.29261 14.2706 2 13.9006 2H7.12912C6.76612 2 6.45896 2.28547 6.43103 2.66373L6.01218 8.59446C5.92143 9.85768 6.34028 11.0638 7.18497 11.9987C7.82024 12.6982 8.65794 13.1763 9.55848 13.369V17.4941H8.07155C7.40138 17.4941 6.86385 18.0508 6.86385 18.7288V18.7645C6.86385 18.8929 6.96856 19 7.09422 19H13.8866C14.0123 19 14.117 18.8929 14.117 18.7645V18.7288C14.11 18.0365 13.5725 17.487 12.9023 17.487ZM13.2444 3.42737L13.4329 6.28212L7.56892 6.26071L7.77137 3.42737H13.2444Z" fill="#202645"/>
</svg>
