<svg width="20" height="20" viewBox="0 0 20 20" fill="none" xmlns="http://www.w3.org/2000/svg">
<path d="M9.29361 8.27459C10.0663 8.27459 10.6927 7.64954 10.6927 6.87851C10.6927 6.10747 10.0663 5.48242 9.29361 5.48242C8.52092 5.48242 7.89453 6.10747 7.89453 6.87851C7.89453 7.64954 8.52092 8.27459 9.29361 8.27459Z" fill="#202645"/>
<path d="M5.81119 8.87811C6.58388 8.87811 7.21028 8.25306 7.21028 7.48202C7.21028 6.71099 6.58388 6.08594 5.81119 6.08594C5.0385 6.08594 4.41211 6.71099 4.41211 7.48202C4.41211 8.25306 5.0385 8.87811 5.81119 8.87811Z" fill="#202645"/>
<path d="M5.21451 12.3459C5.9872 12.3459 6.61359 11.7208 6.61359 10.9498C6.61359 10.1788 5.9872 9.55371 5.21451 9.55371C4.44182 9.55371 3.81543 10.1788 3.81543 10.9498C3.81543 11.7208 4.44182 12.3459 5.21451 12.3459Z" fill="#202645"/>
<path d="M8.6735 11.7453C9.44619 11.7453 10.0726 11.1203 10.0726 10.3492C10.0726 9.57818 9.44619 8.95312 8.6735 8.95312C7.9008 8.95312 7.27441 9.57818 7.27441 10.3492C7.27441 11.1203 7.9008 11.7453 8.6735 11.7453Z" fill="#202645"/>
<path d="M12.1608 11.1252C12.9335 11.1252 13.5599 10.5001 13.5599 9.72909C13.5599 8.95806 12.9335 8.33301 12.1608 8.33301C11.3881 8.33301 10.7617 8.95806 10.7617 9.72909C10.7617 10.5001 11.3881 11.1252 12.1608 11.1252Z" fill="#202645"/>
<path d="M11.5495 14.6105C12.3222 14.6105 12.9485 13.9855 12.9485 13.2144C12.9485 12.4434 12.3222 11.8184 11.5495 11.8184C10.7768 11.8184 10.1504 12.4434 10.1504 13.2144C10.1504 13.9855 10.7768 14.6105 11.5495 14.6105Z" fill="#202645"/>
<path d="M8.0651 15.1965C8.83779 15.1965 9.46418 14.5714 9.46418 13.8004C9.46418 13.0293 8.83779 12.4043 8.0651 12.4043C7.29241 12.4043 6.66602 13.0293 6.66602 13.8004C6.66602 14.5714 7.29241 15.1965 8.0651 15.1965Z" fill="#202645"/>
<path d="M4.39908 16.0002C5.17177 16.0002 5.79816 15.3751 5.79816 14.6041C5.79816 13.8331 5.17177 13.208 4.39908 13.208C3.62639 13.208 3 13.8331 3 14.6041C3 15.3751 3.62639 16.0002 4.39908 16.0002Z" fill="#202645"/>
<path d="M14.0189 5.83563C13.5725 5.83563 13.1751 5.9823 12.8594 6.16156C13.0445 5.80847 13.2023 5.38475 13.2023 4.93388C13.2023 3.79311 12.4021 3 12.1625 3C11.923 3 11.1445 3.91805 11.1445 5.11857C11.1445 5.9823 11.6998 6.60158 12.0101 6.88405C12.0101 6.88405 12.9682 7.91075 14.106 7.91075C15.2438 7.91075 16.044 7.11221 16.044 6.87319C16.044 6.63417 15.222 5.83563 14.0189 5.83563Z" fill="#202645"/>
</svg>
